<svg version="1.1" viewBox="0.0 0.0 464.5511811023622 511.3989501312336" fill="none" stroke="none" stroke-linecap="square" stroke-miterlimit="10" xmlns:xlink="http://www.w3.org/1999/xlink" xmlns="http://www.w3.org/2000/svg"><clipPath id="p.0"><path d="m0 0l464.55118 0l0 511.39896l-464.55118 0l0 -511.39896z" clip-rule="nonzero"/></clipPath><g clip-path="url(#p.0)"><path fill="#000000" fill-opacity="0.0" d="m0 0l464.55118 0l0 511.39896l-464.55118 0z" fill-rule="evenodd"/><path fill="#ffffff" d="m4.514436 73.85444l0 0c0 -39.275333 31.838951 -71.11428 71.11428 -71.11428l284.4486 0l0 0c18.860657 0 36.948853 7.4923763 50.28537 20.82889c13.336517 13.336515 20.828888 31.424711 20.828888 50.285393l0 365.92892c0 39.27533 -31.838928 71.11429 -71.11426 71.11429l-284.4486 0c-39.27533 0 -71.11428 -31.838959 -71.11428 -71.11429z" fill-rule="evenodd"/><path stroke="#000000" stroke-width="1.0" stroke-linejoin="round" stroke-linecap="butt" d="m4.514436 73.85444l0 0c0 -39.275333 31.838951 -71.11428 71.11428 -71.11428l284.4486 0l0 0c18.860657 0 36.948853 7.4923763 50.28537 20.82889c13.336517 13.336515 20.828888 31.424711 20.828888 50.285393l0 365.92892c0 39.27533 -31.838928 71.11429 -71.11426 71.11429l-284.4486 0c-39.27533 0 -71.11428 -31.838959 -71.11428 -71.11429z" fill-rule="evenodd"/><path fill="#e06666" d="m29.92651 70.3731l0 0c0 -11.045914 8.954483 -20.000397 20.0004 -20.000397l79.99919 0l0 0c5.3044434 0 10.391617 2.1071777 14.142426 5.8579826c3.7508087 3.750801 5.8579865 8.837978 5.8579865 14.142414l0 93.322044c0 11.045914 -8.954483 20.000397 -20.000412 20.000397l-79.99919 0c-11.0459175 0 -20.0004 -8.954483 -20.0004 -20.000397z" fill-rule="evenodd"/><path stroke="#000000" stroke-width="1.0" stroke-linejoin="round" stroke-linecap="butt" d="m29.92651 70.3731l0 0c0 -11.045914 8.954483 -20.000397 20.0004 -20.000397l79.99919 0l0 0c5.3044434 0 10.391617 2.1071777 14.142426 5.8579826c3.7508087 3.750801 5.8579865 8.837978 5.8579865 14.142414l0 93.322044c0 11.045914 -8.954483 20.000397 -20.000412 20.000397l-79.99919 0c-11.0459175 0 -20.0004 -8.954483 -20.0004 -20.000397z" fill-rule="evenodd"/><path fill="#cfe2f3" d="m272.59317 70.3731l0 0c0 -11.045914 8.954498 -20.000397 20.000397 -20.000397l79.99921 0l0 0c5.3044434 0 10.391632 2.1071777 14.142426 5.8579826c3.7507935 3.750801 5.857971 8.837978 5.857971 14.142414l0 93.322044c0 11.045914 -8.954468 20.000397 -20.000397 20.000397l-79.99921 0c-11.045898 0 -20.000397 -8.954483 -20.000397 -20.000397z" fill-rule="evenodd"/><path stroke="#000000" stroke-width="1.0" stroke-linejoin="round" stroke-linecap="butt" d="m272.59317 70.3731l0 0c0 -11.045914 8.954498 -20.000397 20.000397 -20.000397l79.99921 0l0 0c5.3044434 0 10.391632 2.1071777 14.142426 5.8579826c3.7507935 3.750801 5.857971 8.837978 5.857971 14.142414l0 93.322044c0 11.045914 -8.954468 20.000397 -20.000397 20.000397l-79.99921 0c-11.045898 0 -20.000397 -8.954483 -20.000397 -20.000397z" fill-rule="evenodd"/><path fill="#4a86e8" d="m367.7034 264.44632l0 0c0 -3.6819763 2.9848328 -6.6667786 6.666809 -6.6667786l86.225464 0c1.7681274 0 3.4638672 0.7023926 4.714142 1.9526367c1.2502747 1.2502747 1.9526672 2.9460144 1.9526672 4.714142l0 26.666412c0 3.6819763 -2.9848328 6.666809 -6.666809 6.666809l-86.225464 0l0 0c-3.6819763 0 -6.666809 -2.9848328 -6.666809 -6.666809z" fill-rule="evenodd"/><path stroke="#000000" stroke-width="1.0" stroke-linejoin="round" stroke-linecap="butt" d="m367.7034 264.44632l0 0c0 -3.6819763 2.9848328 -6.6667786 6.666809 -6.6667786l86.225464 0c1.7681274 0 3.4638672 0.7023926 4.714142 1.9526367c1.2502747 1.2502747 1.9526672 2.9460144 1.9526672 4.714142l0 26.666412c0 3.6819763 -2.9848328 6.666809 -6.666809 6.666809l-86.225464 0l0 0c-3.6819763 0 -6.666809 -2.9848328 -6.666809 -6.666809z" fill-rule="evenodd"/><path fill="#000000" fill-opacity="0.0" d="m367.7034 256.77167l64.0 0l0 42.015747l-64.0 0z" fill-rule="evenodd"/><path fill="#ffffff" d="m384.56277 280.58228l1.6875 0.203125q-0.40625 1.484375 -1.484375 2.3125q-1.078125 0.8125 -2.765625 0.8125q-2.125 0 -3.375 -1.296875q-1.234375 -1.3125 -1.234375 -3.671875q0 -2.453125 1.25 -3.796875q1.265625 -1.34375 3.265625 -1.34375q1.9375 0 3.15625 1.328125q1.234375 1.3125 1.234375 3.703125q0 0.15625 0 0.4375l-7.21875 0q0.09375 1.59375 0.90625 2.453125q0.8125 0.84375 2.015625 0.84375q0.90625 0 1.546875 -0.46875q0.640625 -0.484375 1.015625 -1.515625zm-5.390625 -2.65625l5.40625 0q-0.109375 -1.21875 -0.625 -1.828125q-0.78125 -0.953125 -2.03125 -0.953125q-1.125 0 -1.90625 0.765625q-0.765625 0.75 -0.84375 2.015625zm12.719482 4.296875l0.234375 1.453125q-0.6875 0.140625 -1.234375 0.140625q-0.890625 0 -1.390625 -0.28125q-0.484375 -0.28125 -0.6875 -0.734375q-0.203125 -0.46875 -0.203125 -1.9375l0 -5.578125l-1.203125 0l0 -1.265625l1.203125 0l0 -2.390625l1.625 -0.984375l0 3.375l1.65625 0l0 1.265625l-1.65625 0l0 5.671875q0 0.6875 0.078125 0.890625q0.09375 0.203125 0.28125 0.328125q0.203125 0.109375 0.578125 0.109375q0.265625 0 0.71875 -0.0625zm1.6051636 1.46875l0 -13.359375l1.640625 0l0 4.796875q1.140625 -1.328125 2.890625 -1.328125q1.078125 0 1.859375 0.421875q0.796875 0.421875 1.140625 1.171875q0.34375 0.75 0.34375 2.171875l0 6.125l-1.640625 0l0 -6.125q0 -1.234375 -0.53125 -1.796875q-0.53125 -0.5625 -1.515625 -0.5625q-0.71875 0 -1.359375 0.390625q-0.640625 0.375 -0.921875 1.015625q-0.265625 0.640625 -0.265625 1.78125l0 5.296875l-1.640625 0zm9.922607 -6.59375q0 -2.359375 0.484375 -3.796875q0.484375 -1.453125 1.4375 -2.234375q0.96875 -0.78125 2.421875 -0.78125q1.078125 0 1.890625 0.4375q0.8125 0.421875 1.328125 1.25q0.53125 0.8125 0.828125 1.984375q0.3125 1.15625 0.3125 3.140625q0 2.359375 -0.484375 3.8125q-0.484375 1.4375 -1.453125 2.234375q-0.953125 0.78125 -2.421875 0.78125q-1.921875 0 -3.03125 -1.390625q-1.3125 -1.671875 -1.3125 -5.4375zm1.671875 0q0 3.296875 0.765625 4.390625q0.78125 1.078125 1.90625 1.078125q1.140625 0 1.90625 -1.09375q0.765625 -1.09375 0.765625 -4.375q0 -3.296875 -0.765625 -4.375q-0.765625 -1.078125 -1.921875 -1.078125q-1.125 0 -1.796875 0.953125q-0.859375 1.21875 -0.859375 4.5z" fill-rule="nonzero"/><path fill="#cfe2f3" d="m182.96063 454.33597l0 0c0 -16.098907 13.6006775 -29.149628 30.377945 -29.149628l0 0c8.056732 0 15.783493 3.0711365 21.480469 8.53772c5.6969604 5.466614 8.897491 12.880951 8.897491 20.611908l0 0c0 16.098877 -13.6006775 29.149597 -30.37796 29.149597l0 0c-16.777267 0 -30.377945 -13.05072 -30.377945 -29.149597z" fill-rule="evenodd"/><path stroke="#000000" stroke-width="1.0" stroke-linejoin="round" stroke-linecap="butt" d="m182.96063 454.33597l0 0c0 -16.098907 13.6006775 -29.149628 30.377945 -29.149628l0 0c8.056732 0 15.783493 3.0711365 21.480469 8.53772c5.6969604 5.466614 8.897491 12.880951 8.897491 20.611908l0 0c0 16.098877 -13.6006775 29.149597 -30.37796 29.149597l0 0c-16.777267 0 -30.377945 -13.05072 -30.377945 -29.149597z" fill-rule="evenodd"/><path fill="#e06666" d="m88.59843 92.698296l0 0c0 -3.6819687 2.9848251 -6.6668015 6.6668015 -6.6668015l80.33569 0c1.7681427 0 3.4638672 0.7023926 4.714142 1.9526596c1.2502594 1.250267 1.952652 2.9459991 1.952652 4.714142l0 26.666397c0 3.6819763 -2.9848328 6.6668015 -6.666794 6.6668015l-80.33569 0l0 0c-3.6819763 0 -6.6668015 -2.9848251 -6.6668015 -6.6668015z" fill-rule="evenodd"/><path stroke="#ff0000" stroke-width="1.0" stroke-linejoin="round" stroke-linecap="butt" d="m88.59843 92.698296l0 0c0 -3.6819687 2.9848251 -6.6668015 6.6668015 -6.6668015l80.33569 0c1.7681427 0 3.4638672 0.7023926 4.714142 1.9526596c1.2502594 1.250267 1.952652 2.9459991 1.952652 4.714142l0 26.666397c0 3.6819763 -2.9848328 6.6668015 -6.666794 6.6668015l-80.33569 0l0 0c-3.6819763 0 -6.6668015 -2.9848251 -6.6668015 -6.6668015z" fill-rule="evenodd"/><path fill="#3c78d8" d="m224.55643 92.698296l0 0c0 -3.6819687 2.9848328 -6.6668015 6.666809 -6.6668015l80.33569 0c1.7681274 0 3.4638672 0.7023926 4.714142 1.9526596c1.2502441 1.250267 1.9526367 2.9459991 1.9526367 4.714142l0 26.666397c0 3.6819763 -2.9848022 6.6668015 -6.6667786 6.6668015l-80.33569 0l0 0c-3.6819763 0 -6.666809 -2.9848251 -6.666809 -6.6668015z" fill-rule="evenodd"/><path stroke="#4a86e8" stroke-width="1.0" stroke-linejoin="round" stroke-linecap="butt" d="m224.55643 92.698296l0 0c0 -3.6819687 2.9848328 -6.6668015 6.666809 -6.6668015l80.33569 0c1.7681274 0 3.4638672 0.7023926 4.714142 1.9526596c1.2502441 1.250267 1.9526367 2.9459991 1.9526367 4.714142l0 26.666397c0 3.6819763 -2.9848022 6.6668015 -6.6667786 6.6668015l-80.33569 0l0 0c-3.6819763 0 -6.666809 -2.9848251 -6.666809 -6.6668015z" fill-rule="evenodd"/><path fill="#000000" fill-opacity="0.0" d="m88.59843 84.96326l93.66929 0l0 42.015747l-93.66929 0z" fill-rule="evenodd"/><path fill="#ffffff" d="m101.5203 111.883255l-3.6875 -9.671875l1.734375 0l2.078125 5.796875q0.328125 0.9375 0.625 1.9375q0.203125 -0.765625 0.609375 -1.828125l2.140625 -5.90625l1.6875 0l-3.65625 9.671875l-1.53125 0zm13.265625 -3.109375l1.6875 0.203125q-0.40625 1.484375 -1.484375 2.3125q-1.078125 0.8125 -2.765625 0.8125q-2.125 0 -3.375 -1.296875q-1.234375 -1.3125 -1.234375 -3.671875q0 -2.453125 1.25 -3.796875q1.265625 -1.34375 3.265625 -1.34375q1.9375 0 3.15625 1.328125q1.234375 1.3125 1.234375 3.703125q0 0.15625 0 0.4375l-7.21875 0q0.09375 1.59375 0.90625 2.453125q0.8125 0.84375 2.015625 0.84375q0.90625 0 1.546875 -0.46875q0.640625 -0.484375 1.015625 -1.515625zm-5.390625 -2.65625l5.40625 0q-0.109375 -1.21875 -0.625 -1.828125q-0.78125 -0.953125 -2.03125 -0.953125q-1.125 0 -1.90625 0.765625q-0.765625 0.75 -0.84375 2.015625zm12.719467 4.296875l0.234375 1.453125q-0.6875 0.140625 -1.234375 0.140625q-0.890625 0 -1.390625 -0.28125q-0.484375 -0.28125 -0.6875 -0.734375q-0.203125 -0.46875 -0.203125 -1.9375l0 -5.578125l-1.203125 0l0 -1.265625l1.203125 0l0 -2.390625l1.625 -0.984375l0 3.375l1.65625 0l0 1.265625l-1.65625 0l0 5.671875q0 0.6875 0.078125 0.890625q0.09375 0.203125 0.28125 0.328125q0.203125 0.109375 0.578125 0.109375q0.265625 0 0.71875 -0.0625zm1.6051788 1.46875l0 -13.359375l1.640625 0l0 4.796875q1.140625 -1.328125 2.8906174 -1.328125q1.078125 0 1.859375 0.421875q0.796875 0.421875 1.140625 1.171875q0.34375 0.75 0.34375 2.171875l0 6.125l-1.640625 0l0 -6.125q0 -1.234375 -0.53125 -1.796875q-0.53125 -0.5625 -1.5156174 -0.5625q-0.71875 0 -1.359375 0.390625q-0.640625 0.375 -0.921875 1.015625q-0.265625 0.640625 -0.265625 1.78125l0 5.296875l-1.640625 0zm9.735085 -4.015625l0 -1.640625l5.03125 0l0 1.640625l-5.03125 0zm6.837677 4.015625l0 -9.671875l1.46875 0l0 1.46875q0.5625 -1.03125 1.03125 -1.359375q0.484375 -0.328125 1.0625 -0.328125q0.828125 0 1.6875 0.53125l-0.5625 1.515625q-0.609375 -0.359375 -1.203125 -0.359375q-0.546875 0 -0.96875 0.328125q-0.421875 0.328125 -0.609375 0.890625q-0.28125 0.875 -0.28125 1.921875l0 5.0625l-1.625 0zm12.853302 -3.109375l1.6875 0.203125q-0.40625 1.484375 -1.484375 2.3125q-1.078125 0.8125 -2.765625 0.8125q-2.125 0 -3.375 -1.296875q-1.234375 -1.3125 -1.234375 -3.671875q0 -2.453125 1.25 -3.796875q1.265625 -1.34375 3.265625 -1.34375q1.9375 0 3.15625 1.328125q1.234375 1.3125 1.234375 3.703125q0 0.15625 0 0.4375l-7.21875 0q0.09375 1.59375 0.90625 2.453125q0.8125 0.84375 2.015625 0.84375q0.90625 0 1.546875 -0.46875q0.640625 -0.484375 1.015625 -1.515625zm-5.390625 -2.65625l5.40625 0q-0.109375 -1.21875 -0.625 -1.828125q-0.78125 -0.953125 -2.03125 -0.953125q-1.125 0 -1.90625 0.765625q-0.765625 0.75 -0.84375 2.015625zm15.406967 5.765625l0 -1.21875q-0.90625 1.4375 -2.703125 1.4375q-1.15625 0 -2.125 -0.640625q-0.96875 -0.640625 -1.5 -1.78125q-0.53125 -1.140625 -0.53125 -2.625q0 -1.453125 0.484375 -2.625q0.484375 -1.1875 1.4375 -1.8125q0.96875 -0.625 2.171875 -0.625q0.875 0 1.546875 0.375q0.6875 0.359375 1.109375 0.953125l0 -4.796875l1.640625 0l0 13.359375l-1.53125 0zm-5.171875 -4.828125q0 1.859375 0.78125 2.78125q0.78125 0.921875 1.84375 0.921875q1.078125 0 1.828125 -0.875q0.75 -0.890625 0.75 -2.6875q0 -1.984375 -0.765625 -2.90625q-0.765625 -0.9375 -1.890625 -0.9375q-1.078125 0 -1.8125 0.890625q-0.734375 0.890625 -0.734375 2.8125z" fill-rule="nonzero"/><path fill="#000000" fill-opacity="0.0" d="m224.55643 85.02362l100.81891 0l0 42.015747l-100.81891 0z" fill-rule="evenodd"/><path fill="#ffffff" d="m237.4783 111.94362l-3.6875 -9.671875l1.734375 0l2.078125 5.796875q0.328125 0.9375 0.625 1.9375q0.203125 -0.765625 0.609375 -1.828125l2.140625 -5.90625l1.6875 0l-3.65625 9.671875l-1.53125 0zm13.265625 -3.109375l1.6875 0.203125q-0.40625 1.484375 -1.484375 2.3125q-1.078125 0.8125 -2.765625 0.8125q-2.125 0 -3.375 -1.296875q-1.234375 -1.3125 -1.234375 -3.671875q0 -2.453125 1.25 -3.796875q1.265625 -1.34375 3.265625 -1.34375q1.9375 0 3.15625 1.328125q1.234375 1.3125 1.234375 3.703125q0 0.15625 0 0.4375l-7.21875 0q0.09375 1.59375 0.90625 2.453125q0.8125 0.84375 2.015625 0.84375q0.90625 0 1.546875 -0.46875q0.640625 -0.484375 1.015625 -1.515625zm-5.390625 -2.65625l5.40625 0q-0.109375 -1.21875 -0.625 -1.828125q-0.78125 -0.953125 -2.03125 -0.953125q-1.125 0 -1.90625 0.765625q-0.765625 0.75 -0.84375 2.015625zm12.719482 4.296875l0.234375 1.453125q-0.6875 0.140625 -1.234375 0.140625q-0.890625 0 -1.3906403 -0.28125q-0.484375 -0.28125 -0.6875 -0.734375q-0.203125 -0.46875 -0.203125 -1.9375l0 -5.578125l-1.203125 0l0 -1.265625l1.203125 0l0 -2.390625l1.6250153 -0.984375l0 3.375l1.65625 0l0 1.265625l-1.65625 0l0 5.671875q0 0.6875 0.078125 0.890625q0.09375 0.203125 0.28125 0.328125q0.203125 0.109375 0.578125 0.109375q0.265625 0 0.71875 -0.0625zm1.6051636 1.46875l0 -13.359375l1.640625 0l0 4.796875q1.140625 -1.328125 2.890625 -1.328125q1.078125 0 1.859375 0.421875q0.796875 0.421875 1.140625 1.171875q0.34375 0.75 0.34375 2.171875l0 6.125l-1.640625 0l0 -6.125q0 -1.234375 -0.53125 -1.796875q-0.53125 -0.5625 -1.515625 -0.5625q-0.71875 0 -1.359375 0.390625q-0.640625 0.375 -0.921875 1.015625q-0.265625 0.640625 -0.265625 1.78125l0 5.296875l-1.640625 0zm9.735107 -4.015625l0 -1.640625l5.03125 0l0 1.640625l-5.03125 0zm8.353302 4.015625l-1.515625 0l0 -13.359375l1.640625 0l0 4.765625q1.046875 -1.296875 2.65625 -1.296875q0.890625 0 1.6875 0.359375q0.796875 0.359375 1.3125 1.015625q0.515625 0.640625 0.796875 1.5625q0.296875 0.921875 0.296875 1.96875q0 2.484375 -1.234375 3.84375q-1.21875 1.359375 -2.953125 1.359375q-1.703125 0 -2.6875 -1.4375l0 1.21875zm-0.015625 -4.90625q0 1.734375 0.484375 2.515625q0.765625 1.265625 2.09375 1.265625q1.078125 0 1.859375 -0.9375q0.78125 -0.9375 0.78125 -2.78125q0 -1.890625 -0.75 -2.796875q-0.75 -0.90625 -1.828125 -0.90625q-1.0625 0 -1.859375 0.9375q-0.78125 0.9375 -0.78125 2.703125zm8.844452 4.90625l0 -13.359375l1.640625 0l0 13.359375l-1.640625 0zm10.519836 0l0 -1.421875q-1.125 1.640625 -3.0625 1.640625q-0.859375 0 -1.609375 -0.328125q-0.734375 -0.328125 -1.09375 -0.828125q-0.359375 -0.5 -0.5 -1.21875q-0.109375 -0.46875 -0.109375 -1.53125l0 -5.984375l1.640625 0l0 5.359375q0 1.28125 0.109375 1.734375q0.15625 0.640625 0.65625 1.015625q0.5 0.375 1.234375 0.375q0.734375 0 1.375 -0.375q0.65625 -0.390625 0.921875 -1.03125q0.265625 -0.65625 0.265625 -1.890625l0 -5.1875l1.640625 0l0 9.671875l-1.46875 0zm10.672577 -3.109375l1.6875 0.203125q-0.40625 1.484375 -1.484375 2.3125q-1.078125 0.8125 -2.765625 0.8125q-2.125 0 -3.375 -1.296875q-1.234375 -1.3125 -1.234375 -3.671875q0 -2.453125 1.25 -3.796875q1.265625 -1.34375 3.265625 -1.34375q1.9375 0 3.15625 1.328125q1.234375 1.3125 1.234375 3.703125q0 0.15625 0 0.4375l-7.21875 0q0.09375 1.59375 0.90625 2.453125q0.8125 0.84375 2.015625 0.84375q0.90625 0 1.546875 -0.46875q0.640625 -0.484375 1.015625 -1.515625zm-5.390625 -2.65625l5.40625 0q-0.109375 -1.21875 -0.625 -1.828125q-0.78125 -0.953125 -2.03125 -0.953125q-1.125 0 -1.90625 0.765625q-0.765625 0.75 -0.84375 2.015625z" fill-rule="nonzero"/><path fill="#000000" fill-opacity="0.0" d="m135.43307 126.979004l57.354324 133.35434" fill-rule="evenodd"/><path stroke="#351c75" stroke-width="3.0" stroke-linejoin="round" stroke-linecap="butt" d="m135.43307 126.979004l57.354324 133.35434" fill-rule="evenodd"/><path fill="#000000" fill-opacity="0.0" d="m29.91076 146.68504l120.00001 0l0 38.771652l-120.00001 0z" fill-rule="evenodd"/><path fill="#efefef" d="m44.879513 171.04504l-1.40625 0l0 -8.96875q-0.515625 0.484375 -1.34375 0.96875q-0.8125 0.484375 -1.46875 0.734375l0 -1.359375q1.171875 -0.5625 2.046875 -1.34375q0.890625 -0.796875 1.265625 -1.53125l0.90625 0l0 11.5zm3.8046875 -2.65625l1.359375 -0.125q0.171875 0.953125 0.65625 1.390625q0.484375 0.421875 1.234375 0.421875q0.65625 0 1.140625 -0.296875q0.484375 -0.296875 0.796875 -0.78125q0.3125 -0.5 0.515625 -1.34375q0.21875 -0.84375 0.21875 -1.71875q0 -0.09375 0 -0.28125q-0.421875 0.671875 -1.15625 1.09375q-0.734375 0.40625 -1.578125 0.40625q-1.421875 0 -2.40625 -1.03125q-0.984375 -1.03125 -0.984375 -2.71875q0 -1.734375 1.015625 -2.796875q1.03125 -1.0625 2.578125 -1.0625q1.125 0 2.046875 0.609375q0.921875 0.59375 1.40625 1.703125q0.484375 1.109375 0.484375 3.21875q0 2.203125 -0.484375 3.5q-0.46875 1.296875 -1.421875 1.984375q-0.9375 0.6875 -2.203125 0.6875q-1.34375 0 -2.203125 -0.75q-0.84375 -0.75 -1.015625 -2.109375zm5.765625 -5.046875q0 -1.21875 -0.65625 -1.921875q-0.640625 -0.71875 -1.546875 -0.71875q-0.9375 0 -1.640625 0.765625q-0.6875 0.765625 -0.6875 1.984375q0 1.09375 0.65625 1.78125q0.671875 0.6875 1.640625 0.6875q0.96875 0 1.59375 -0.6875q0.640625 -0.6875 0.640625 -1.890625zm10.320309 6.34375l0 1.359375l-7.578121 0q-0.015625 -0.515625 0.171875 -0.984375q0.28125 -0.765625 0.921875 -1.515625q0.640625 -0.75 1.84375 -1.734375q1.859375 -1.53125 2.515625 -2.421875q0.65625 -0.90625 0.65625 -1.703125q0 -0.828125 -0.59375 -1.40625q-0.59375 -0.578125 -1.5625 -0.578125q-1.015625 0 -1.625 0.609375q-0.609375 0.609375 -0.609375 1.6875l-1.453125 -0.140625q0.15625 -1.625 1.125 -2.46875q0.96875 -0.84375 2.59375 -0.84375q1.65625 0 2.609375 0.921875q0.9687462 0.90625 0.9687462 2.25q0 0.6875 -0.28125 1.359375q-0.28125 0.65625 -0.9374962 1.390625q-0.65625 0.734375 -2.171875 2.015625q-1.265625 1.0625 -1.625 1.453125q-0.359375 0.375 -0.59375 0.75l5.624996 0zm2.2890625 1.359375l0 -1.609375l1.609375 0l0 1.609375l-1.609375 0zm8.9609375 0l-1.40625 0l0 -8.96875q-0.515625 0.484375 -1.34375 0.96875q-0.8125 0.484375 -1.46875 0.734375l0 -1.359375q1.171875 -0.5625 2.046875 -1.34375q0.890625 -0.796875 1.265625 -1.53125l0.90625 0l0 11.5zm10.8984375 -8.65625l-1.40625 0.109375q-0.1875 -0.828125 -0.53125 -1.203125q-0.5625 -0.59375 -1.40625 -0.59375q-0.671875 0 -1.171875 0.375q-0.671875 0.484375 -1.0625 1.421875q-0.375 0.921875 -0.390625 2.640625q0.515625 -0.78125 1.25 -1.15625q0.734375 -0.375 1.53125 -0.375q1.40625 0 2.390625 1.046875q1.0 1.03125 1.0 2.671875q0 1.078125 -0.46875 2.0q-0.46875 0.921875 -1.28125 1.421875q-0.8125 0.5 -1.84375 0.5q-1.75 0 -2.859375 -1.296875q-1.109375 -1.296875 -1.109375 -4.265625q0 -3.328125 1.21875 -4.828125q1.078125 -1.3125 2.890625 -1.3125q1.34375 0 2.203125 0.765625q0.875 0.75 1.046875 2.078125zm-5.75 4.9375q0 0.734375 0.3125 1.40625q0.3125 0.65625 0.859375 1.0q0.5625 0.34375 1.171875 0.34375q0.890625 0 1.53125 -0.71875q0.640625 -0.71875 0.640625 -1.953125q0 -1.1875 -0.640625 -1.859375q-0.625 -0.6875 -1.59375 -0.6875q-0.953125 0 -1.625 0.6875q-0.65625 0.671875 -0.65625 1.78125zm9.5078125 -2.5q-0.875 -0.3125 -1.296875 -0.90625q-0.421875 -0.59375 -0.421875 -1.421875q0 -1.25 0.890625 -2.09375q0.90625 -0.859375 2.40625 -0.859375q1.5 0 2.40625 0.875q0.921875 0.859375 0.921875 2.109375q0 0.796875 -0.421875 1.390625q-0.421875 0.59375 -1.265625 0.90625q1.046875 0.34375 1.59375 1.109375q0.5625 0.765625 0.5625 1.828125q0 1.46875 -1.046875 2.484375q-1.03125 1.0 -2.734375 1.0q-1.6875 0 -2.734375 -1.0q-1.03125 -1.015625 -1.03125 -2.515625q0 -1.125 0.5625 -1.875q0.5625 -0.75 1.609375 -1.03125zm-0.28125 -2.375q0 0.8125 0.515625 1.328125q0.53125 0.515625 1.375 0.515625q0.8125 0 1.328125 -0.515625q0.515625 -0.515625 0.515625 -1.25q0 -0.78125 -0.53125 -1.296875q-0.53125 -0.53125 -1.328125 -0.53125q-0.8125 0 -1.34375 0.515625q-0.53125 0.515625 -0.53125 1.234375zm-0.453125 5.28125q0 0.609375 0.28125 1.171875q0.296875 0.5625 0.859375 0.875q0.5625 0.296875 1.203125 0.296875q1.015625 0 1.671875 -0.640625q0.65625 -0.65625 0.65625 -1.65625q0 -1.015625 -0.6875 -1.671875q-0.671875 -0.671875 -1.6875 -0.671875q-0.984375 0 -1.640625 0.65625q-0.65625 0.65625 -0.65625 1.640625zm8.2578125 3.3125l0 -1.609375l1.609375 0l0 1.609375l-1.609375 0zm8.9609375 0l-1.40625 0l0 -8.96875q-0.515625 0.484375 -1.34375 0.96875q-0.8125 0.484375 -1.46875 0.734375l0 -1.359375q1.171875 -0.5625 2.046875 -1.34375q0.890625 -0.796875 1.265625 -1.53125l0.90625 0l0 11.5zm3.6015625 -3.0l1.46875 -0.125q0.171875 1.078125 0.765625 1.625q0.59375 0.53125 1.4375 0.53125q1.015625 0 1.71875 -0.765625q0.703125 -0.765625 0.703125 -2.03125q0 -1.203125 -0.671875 -1.890625q-0.671875 -0.703125 -1.765625 -0.703125q-0.6875 0 -1.234375 0.3125q-0.546875 0.3125 -0.859375 0.796875l-1.3125 -0.171875l1.109375 -5.875l5.6875 0l0 1.34375l-4.5625 0l-0.625 3.078125q1.03125 -0.71875 2.171875 -0.71875q1.5 0 2.53125 1.046875q1.03125 1.03125 1.03125 2.65625q0 1.5625 -0.90625 2.6875q-1.109375 1.40625 -3.015625 1.40625q-1.5625 0 -2.546875 -0.875q-0.984375 -0.890625 -1.125 -2.328125zm9.6796875 3.0l0 -1.609375l1.609375 0l0 1.609375l-1.609375 0zm8.960945 0l-1.4062576 0l0 -8.96875q-0.515625 0.484375 -1.34375 0.96875q-0.8125 0.484375 -1.46875 0.734375l0 -1.359375q1.171875 -0.5625 2.046875 -1.34375q0.8906326 -0.796875 1.2656326 -1.53125l0.90625 0l0 11.5z" fill-rule="nonzero"/><path fill="#000000" fill-opacity="0.0" d="m272.59317 144.92389l120.0 0l0 38.771652l-120.0 0z" fill-rule="evenodd"/><path fill="#666666" d="m287.56192 169.28389l-1.40625 0l0 -8.96875q-0.515625 0.484375 -1.34375 0.96875q-0.8125 0.484375 -1.46875 0.734375l0 -1.359375q1.171875 -0.5625 2.046875 -1.34375q0.890625 -0.796875 1.265625 -1.53125l0.90625 0l0 11.5zm3.8046875 -2.65625l1.359375 -0.125q0.171875 0.953125 0.65625 1.390625q0.484375 0.421875 1.234375 0.421875q0.65625 0 1.140625 -0.296875q0.484375 -0.296875 0.796875 -0.78125q0.3125 -0.5 0.515625 -1.34375q0.21875 -0.84375 0.21875 -1.71875q0 -0.09375 0 -0.28125q-0.421875 0.671875 -1.15625 1.09375q-0.734375 0.40625 -1.578125 0.40625q-1.421875 0 -2.40625 -1.03125q-0.984375 -1.03125 -0.984375 -2.71875q0 -1.734375 1.015625 -2.796875q1.03125 -1.0625 2.578125 -1.0625q1.125 0 2.046875 0.609375q0.921875 0.59375 1.40625 1.703125q0.484375 1.109375 0.484375 3.21875q0 2.203125 -0.484375 3.5q-0.46875 1.296875 -1.421875 1.984375q-0.9375 0.6875 -2.203125 0.6875q-1.34375 0 -2.203125 -0.75q-0.84375 -0.75 -1.015625 -2.109375zm5.765625 -5.046875q0 -1.21875 -0.65625 -1.921875q-0.640625 -0.71875 -1.546875 -0.71875q-0.9375 0 -1.640625 0.765625q-0.6875 0.765625 -0.6875 1.984375q0 1.09375 0.65625 1.78125q0.671875 0.6875 1.640625 0.6875q0.96875 0 1.59375 -0.6875q0.640625 -0.6875 0.640625 -1.890625zm10.3203125 6.34375l0 1.359375l-7.578125 0q-0.015625 -0.515625 0.171875 -0.984375q0.28125 -0.765625 0.921875 -1.515625q0.640625 -0.75 1.84375 -1.734375q1.859375 -1.53125 2.515625 -2.421875q0.65625 -0.90625 0.65625 -1.703125q0 -0.828125 -0.59375 -1.40625q-0.59375 -0.578125 -1.5625 -0.578125q-1.015625 0 -1.625 0.609375q-0.609375 0.609375 -0.609375 1.6875l-1.453125 -0.140625q0.15625 -1.625 1.125 -2.46875q0.96875 -0.84375 2.59375 -0.84375q1.65625 0 2.609375 0.921875q0.96875 0.90625 0.96875 2.25q0 0.6875 -0.28125 1.359375q-0.28125 0.65625 -0.9375 1.390625q-0.65625 0.734375 -2.171875 2.015625q-1.265625 1.0625 -1.625 1.453125q-0.359375 0.375 -0.59375 0.75l5.625 0zm2.2890625 1.359375l0 -1.609375l1.609375 0l0 1.609375l-1.609375 0zm8.9609375 0l-1.40625 0l0 -8.96875q-0.515625 0.484375 -1.34375 0.96875q-0.8125 0.484375 -1.46875 0.734375l0 -1.359375q1.171875 -0.5625 2.046875 -1.34375q0.890625 -0.796875 1.265625 -1.53125l0.90625 0l0 11.5zm10.8984375 -8.65625l-1.40625 0.109375q-0.1875 -0.828125 -0.53125 -1.203125q-0.5625 -0.59375 -1.40625 -0.59375q-0.671875 0 -1.171875 0.375q-0.671875 0.484375 -1.0625 1.421875q-0.375 0.921875 -0.390625 2.640625q0.515625 -0.78125 1.25 -1.15625q0.734375 -0.375 1.53125 -0.375q1.40625 0 2.390625 1.046875q1.0 1.03125 1.0 2.671875q0 1.078125 -0.46875 2.0q-0.46875 0.921875 -1.28125 1.421875q-0.8125 0.5 -1.84375 0.5q-1.75 0 -2.859375 -1.296875q-1.109375 -1.296875 -1.109375 -4.265625q0 -3.328125 1.21875 -4.828125q1.078125 -1.3125 2.890625 -1.3125q1.34375 0 2.203125 0.765625q0.875 0.75 1.046875 2.078125zm-5.75 4.9375q0 0.734375 0.3125 1.40625q0.3125 0.65625 0.859375 1.0q0.5625 0.34375 1.171875 0.34375q0.890625 0 1.53125 -0.71875q0.640625 -0.71875 0.640625 -1.953125q0 -1.1875 -0.640625 -1.859375q-0.625 -0.6875 -1.59375 -0.6875q-0.953125 0 -1.625 0.6875q-0.65625 0.671875 -0.65625 1.78125zm9.5078125 -2.5q-0.875 -0.3125 -1.296875 -0.90625q-0.421875 -0.59375 -0.421875 -1.421875q0 -1.25 0.890625 -2.09375q0.90625 -0.859375 2.40625 -0.859375q1.5 0 2.40625 0.875q0.921875 0.859375 0.921875 2.109375q0 0.796875 -0.421875 1.390625q-0.421875 0.59375 -1.265625 0.90625q1.046875 0.34375 1.59375 1.109375q0.5625 0.765625 0.5625 1.828125q0 1.46875 -1.046875 2.484375q-1.03125 1.0 -2.734375 1.0q-1.6875 0 -2.734375 -1.0q-1.03125 -1.015625 -1.03125 -2.515625q0 -1.125 0.5625 -1.875q0.5625 -0.75 1.609375 -1.03125zm-0.28125 -2.375q0 0.8125 0.515625 1.328125q0.53125 0.515625 1.375 0.515625q0.8125 0 1.328125 -0.515625q0.515625 -0.515625 0.515625 -1.25q0 -0.78125 -0.53125 -1.296875q-0.53125 -0.53125 -1.328125 -0.53125q-0.8125 0 -1.34375 0.515625q-0.53125 0.515625 -0.53125 1.234375zm-0.453125 5.28125q0 0.609375 0.28125 1.171875q0.296875 0.5625 0.859375 0.875q0.5625 0.296875 1.203125 0.296875q1.015625 0 1.671875 -0.640625q0.65625 -0.65625 0.65625 -1.65625q0 -1.015625 -0.6875 -1.671875q-0.671875 -0.671875 -1.6875 -0.671875q-0.984375 0 -1.640625 0.65625q-0.65625 0.65625 -0.65625 1.640625zm8.2578125 3.3125l0 -1.609375l1.609375 0l0 1.609375l-1.609375 0zm8.9609375 0l-1.40625 0l0 -8.96875q-0.515625 0.484375 -1.34375 0.96875q-0.8125 0.484375 -1.46875 0.734375l0 -1.359375q1.171875 -0.5625 2.046875 -1.34375q0.890625 -0.796875 1.265625 -1.53125l0.90625 0l0 11.5zm3.6015625 -3.0l1.46875 -0.125q0.171875 1.078125 0.765625 1.625q0.59375 0.53125 1.4375 0.53125q1.015625 0 1.71875 -0.765625q0.703125 -0.765625 0.703125 -2.03125q0 -1.203125 -0.671875 -1.890625q-0.671875 -0.703125 -1.765625 -0.703125q-0.6875 0 -1.234375 0.3125q-0.546875 0.3125 -0.859375 0.796875l-1.3125 -0.171875l1.109375 -5.875l5.6875 0l0 1.34375l-4.5625 0l-0.625 3.078125q1.03125 -0.71875 2.171875 -0.71875q1.5 0 2.53125 1.046875q1.03125 1.03125 1.03125 2.65625q0 1.5625 -0.90625 2.6875q-1.109375 1.40625 -3.015625 1.40625q-1.5625 0 -2.546875 -0.875q-0.984375 -0.890625 -1.125 -2.328125zm9.6796875 3.0l0 -1.609375l1.609375 0l0 1.609375l-1.609375 0zm11.0546875 -1.359375l0 1.359375l-7.578125 0q-0.015625 -0.515625 0.171875 -0.984375q0.28125 -0.765625 0.921875 -1.515625q0.640625 -0.75 1.84375 -1.734375q1.859375 -1.53125 2.515625 -2.421875q0.65625 -0.90625 0.65625 -1.703125q0 -0.828125 -0.59375 -1.40625q-0.59375 -0.578125 -1.5625 -0.578125q-1.015625 0 -1.625 0.609375q-0.609375 0.609375 -0.609375 1.6875l-1.453125 -0.140625q0.15625 -1.625 1.125 -2.46875q0.96875 -0.84375 2.59375 -0.84375q1.65625 0 2.609375 0.921875q0.96875 0.90625 0.96875 2.25q0 0.6875 -0.28125 1.359375q-0.28125 0.65625 -0.9375 1.390625q-0.65625 0.734375 -2.171875 2.015625q-1.265625 1.0625 -1.625 1.453125q-0.359375 0.375 -0.59375 0.75l5.625 0z" fill-rule="nonzero"/><path fill="#000000" fill-opacity="0.0" d="m104.69822 256.38474l0 0c-1.9090424 -10.0160675 4.3587265 -19.931381 16.143661 -25.538498c11.784935 -5.6071167 27.02021 -5.922653 39.240944 -0.8127289l0 0c4.328949 -5.8237762 12.252197 -9.844681 21.373123 -10.846481c9.120926 -1.0018005 18.368225 1.1331635 24.944778 5.7591095l0 0c3.6877136 -5.280197 10.928604 -8.82782 19.153229 -9.383987c8.224609 -0.55615234 16.268982 1.9578552 21.278534 6.649933l0 0c6.6623993 -5.597 17.262451 -7.9535675 27.21341 -6.050003c9.950989 1.9035645 17.465637 7.725357 19.292328 14.946259l0 0c8.162537 1.5895691 14.961792 5.630478 18.641022 11.078659c3.6791992 5.4481964 3.877472 11.769226 0.5435791 17.32994l0 0c8.03772 7.468628 9.917969 17.420502 4.939026 26.141754c-4.9789734 8.721222 -16.069061 14.901581 -29.131683 16.23465c-0.09207153 8.185181 -6.37973 15.695831 -16.439453 19.636993c-10.059723 3.9411316 -22.320648 3.6973877 -32.056854 -0.6373291l0 0c-4.1471252 9.803192 -15.819855 17.016266 -29.975159 18.52295c-14.155304 1.5066833 -28.255554 -2.9631653 -36.20894 -11.478394l0 0c-9.749176 4.197174 -21.447388 5.40625 -32.455734 3.3544922c-11.008347 -2.0517883 -20.399551 -7.1915894 -26.055145 -14.259979l0 0c-9.962433 0.8323364 -19.594734 -2.8527222 -24.116425 -9.226257c-4.5216827 -6.373535 -2.9701996 -14.078796 3.8844604 -19.291687l0 0c-8.886749 -3.734253 -13.421303 -11.144257 -11.239075 -18.365997c2.1822357 -7.2217407 10.586754 -12.618713 20.830933 -13.376648z" fill-rule="evenodd"/><path fill="#000000" fill-opacity="0.0" d="m94.90944 288.51343l0 0c4.1936874 1.762207 9.038376 2.5615845 13.883591 2.290802m6.3461914 26.227783c2.0836182 -0.17407227 4.1259613 -0.5426941 6.0743637 -1.0963745m52.4336 12.001373c-1.4654846 -1.5690002 -2.692459 -3.2456055 -3.6600342 -5.0012817m69.84665 -2.0435486l0 0c0.75608826 -1.7872925 1.2459564 -3.62677 1.4614563 -5.487793m47.03302 -13.5112c0.09802246 -8.7144165 -6.8347473 -16.69342 -17.820496 -20.509796m42.01291 -21.865692c-1.7790833 2.9674377 -4.4950867 5.5997925 -7.9350586 7.690674m-11.247864 -36.100037l0 0c0.3031311 1.1983185 0.4434204 2.4146423 0.4189148 3.6321106m-46.923843 -12.528l0 0c-1.6619415 1.3961792 -3.0311584 2.9563751 -4.0650177 4.6320343m-36.36714 -1.8985901l0 0c-0.8856659 1.2681274 -1.5470276 2.6100311 -1.9688416 3.9947968m-44.34973 1.0926666l0 0c2.5858917 1.081253 4.9782104 2.38266 7.1243744 3.8756409m-62.508263 22.475739l0 0c0.26311493 1.3804932 0.67884827 2.743927 1.2433167 4.077606" fill-rule="evenodd"/><path stroke="#000000" stroke-width="1.0" stroke-linejoin="round" stroke-linecap="butt" d="m104.69822 256.38474l0 0c-1.9090424 -10.0160675 4.3587265 -19.931381 16.143661 -25.538498c11.784935 -5.6071167 27.02021 -5.922653 39.240944 -0.8127289l0 0c4.328949 -5.8237762 12.252197 -9.844681 21.373123 -10.846481c9.120926 -1.0018005 18.368225 1.1331635 24.944778 5.7591095l0 0c3.6877136 -5.280197 10.928604 -8.82782 19.153229 -9.383987c8.224609 -0.55615234 16.268982 1.9578552 21.278534 6.649933l0 0c6.6623993 -5.597 17.262451 -7.9535675 27.21341 -6.050003c9.950989 1.9035645 17.465637 7.725357 19.292328 14.946259l0 0c8.162537 1.5895691 14.961792 5.630478 18.641022 11.078659c3.6791992 5.4481964 3.877472 11.769226 0.5435791 17.32994l0 0c8.03772 7.468628 9.917969 17.420502 4.939026 26.141754c-4.9789734 8.721222 -16.069061 14.901581 -29.131683 16.23465c-0.09207153 8.185181 -6.37973 15.695831 -16.439453 19.636993c-10.059723 3.9411316 -22.320648 3.6973877 -32.056854 -0.6373291l0 0c-4.1471252 9.803192 -15.819855 17.016266 -29.975159 18.52295c-14.155304 1.5066833 -28.255554 -2.9631653 -36.20894 -11.478394l0 0c-9.749176 4.197174 -21.447388 5.40625 -32.455734 3.3544922c-11.008347 -2.0517883 -20.399551 -7.1915894 -26.055145 -14.259979l0 0c-9.962433 0.8323364 -19.594734 -2.8527222 -24.116425 -9.226257c-4.5216827 -6.373535 -2.9701996 -14.078796 3.8844604 -19.291687l0 0c-8.886749 -3.734253 -13.421303 -11.144257 -11.239075 -18.365997c2.1822357 -7.2217407 10.586754 -12.618713 20.830933 -13.376648z" fill-rule="evenodd"/><path stroke="#000000" stroke-width="1.0" stroke-linejoin="round" stroke-linecap="butt" d="m94.90944 288.51343l0 0c4.1936874 1.762207 9.038376 2.5615845 13.883591 2.290802m6.3461914 26.227783c2.0836182 -0.17407227 4.1259613 -0.5426941 6.0743637 -1.0963745m52.4336 12.001373c-1.4654846 -1.5690002 -2.692459 -3.2456055 -3.6600342 -5.0012817m69.84665 -2.0435486l0 0c0.75608826 -1.7872925 1.2459564 -3.62677 1.4614563 -5.487793m47.03302 -13.5112c0.09802246 -8.7144165 -6.8347473 -16.69342 -17.820496 -20.509796m42.01291 -21.865692c-1.7790833 2.9674377 -4.4950867 5.5997925 -7.9350586 7.690674m-11.247864 -36.100037l0 0c0.3031311 1.1983185 0.4434204 2.4146423 0.4189148 3.6321106m-46.923843 -12.528l0 0c-1.6619415 1.3961792 -3.0311584 2.9563751 -4.0650177 4.6320343m-36.36714 -1.8985901l0 0c-0.8856659 1.2681274 -1.5470276 2.6100311 -1.9688416 3.9947968m-44.34973 1.0926666l0 0c2.5858917 1.081253 4.9782104 2.38266 7.1243744 3.8756409m-62.508263 22.475739l0 0c0.26311493 1.3804932 0.67884827 2.743927 1.2433167 4.077606" fill-rule="evenodd"/><path fill="#000000" fill-opacity="0.0" d="m136.21391 285.0092l17.377945 0l0 14.196838l-17.377945 0z" fill-rule="evenodd"/><path fill="#000000" fill-opacity="0.0" d="m133.84776 282.64304l22.110245 0l-2.36615 2.36615l-17.377945 0z" fill-rule="evenodd"/><path fill="#000000" fill-opacity="0.0" d="m133.84776 301.57217l2.36615 -2.36615l17.377945 0l2.36615 2.36615z" fill-rule="evenodd"/><path fill="#000000" fill-opacity="0.0" d="m133.84776 282.64304l2.36615 2.36615l0 14.196838l-2.36615 2.36615z" fill-rule="evenodd"/><path fill="#000000" fill-opacity="0.0" d="m155.95801 282.64304l0 18.929138l-2.36615 -2.36615l0 -14.196838z" fill-rule="evenodd"/><path fill="#000000" fill-opacity="0.0" d="m133.84776 282.64304l22.110245 0l0 18.929138l-22.110245 0zm2.36615 2.36615l17.377945 0l0 14.196838l-17.377945 0zm-2.36615 -2.36615l2.36615 2.36615m-2.36615 16.562988l2.36615 -2.36615m19.744095 -16.562988l-2.36615 2.36615m2.36615 16.562988l-2.36615 -2.36615" fill-rule="evenodd"/><path fill="#ffffff" fill-opacity="0.2" d="m133.84776 282.64304l22.110245 0l-2.36615 2.36615l-17.377945 0z" fill-rule="evenodd"/><path fill="#000000" fill-opacity="0.2" d="m133.84776 301.57217l2.36615 -2.36615l17.377945 0l2.36615 2.36615z" fill-rule="evenodd"/><path fill="#ffffff" fill-opacity="0.4" d="m133.84776 282.64304l2.36615 2.36615l0 14.196838l-2.36615 2.36615z" fill-rule="evenodd"/><path fill="#000000" fill-opacity="0.4" d="m155.95801 282.64304l0 18.929138l-2.36615 -2.36615l0 -14.196838z" fill-rule="evenodd"/><path stroke="#000000" stroke-width="1.0" stroke-linejoin="round" stroke-linecap="butt" d="m133.84776 282.64304l22.110245 0l0 18.929138l-22.110245 0zm2.36615 2.36615l17.377945 0l0 14.196838l-17.377945 0zm-2.36615 -2.36615l2.36615 2.36615m-2.36615 16.562988l2.36615 -2.36615m19.744095 -16.562988l-2.36615 2.36615m2.36615 16.562988l-2.36615 -2.36615" fill-rule="evenodd"/><path fill="#000000" fill-opacity="0.0" d="m160.21391 285.0092l17.377945 0l0 14.196838l-17.377945 0z" fill-rule="evenodd"/><path fill="#000000" fill-opacity="0.0" d="m157.84776 282.64304l22.110245 0l-2.36615 2.36615l-17.377945 0z" fill-rule="evenodd"/><path fill="#000000" fill-opacity="0.0" d="m157.84776 301.57217l2.36615 -2.36615l17.377945 0l2.36615 2.36615z" fill-rule="evenodd"/><path fill="#000000" fill-opacity="0.0" d="m157.84776 282.64304l2.36615 2.36615l0 14.196838l-2.36615 2.36615z" fill-rule="evenodd"/><path fill="#000000" fill-opacity="0.0" d="m179.95801 282.64304l0 18.929138l-2.36615 -2.36615l0 -14.196838z" fill-rule="evenodd"/><path fill="#000000" fill-opacity="0.0" d="m157.84776 282.64304l22.110245 0l0 18.929138l-22.110245 0zm2.36615 2.36615l17.377945 0l0 14.196838l-17.377945 0zm-2.36615 -2.36615l2.36615 2.36615m-2.36615 16.562988l2.36615 -2.36615m19.744095 -16.562988l-2.36615 2.36615m2.36615 16.562988l-2.36615 -2.36615" fill-rule="evenodd"/><path fill="#ffffff" fill-opacity="0.2" d="m157.84776 282.64304l22.110245 0l-2.36615 2.36615l-17.377945 0z" fill-rule="evenodd"/><path fill="#000000" fill-opacity="0.2" d="m157.84776 301.57217l2.36615 -2.36615l17.377945 0l2.36615 2.36615z" fill-rule="evenodd"/><path fill="#ffffff" fill-opacity="0.4" d="m157.84776 282.64304l2.36615 2.36615l0 14.196838l-2.36615 2.36615z" fill-rule="evenodd"/><path fill="#000000" fill-opacity="0.4" d="m179.95801 282.64304l0 18.929138l-2.36615 -2.36615l0 -14.196838z" fill-rule="evenodd"/><path stroke="#000000" stroke-width="1.0" stroke-linejoin="round" stroke-linecap="butt" d="m157.84776 282.64304l22.110245 0l0 18.929138l-22.110245 0zm2.36615 2.36615l17.377945 0l0 14.196838l-17.377945 0zm-2.36615 -2.36615l2.36615 2.36615m-2.36615 16.562988l2.36615 -2.36615m19.744095 -16.562988l-2.36615 2.36615m2.36615 16.562988l-2.36615 -2.36615" fill-rule="evenodd"/><path fill="#000000" fill-opacity="0.0" d="m184.21391 285.0092l17.377945 0l0 14.196838l-17.377945 0z" fill-rule="evenodd"/><path fill="#000000" fill-opacity="0.0" d="m181.84776 282.64304l22.110245 0l-2.36615 2.36615l-17.377945 0z" fill-rule="evenodd"/><path fill="#000000" fill-opacity="0.0" d="m181.84776 301.57217l2.36615 -2.36615l17.377945 0l2.36615 2.36615z" fill-rule="evenodd"/><path fill="#000000" fill-opacity="0.0" d="m181.84776 282.64304l2.36615 2.36615l0 14.196838l-2.36615 2.36615z" fill-rule="evenodd"/><path fill="#000000" fill-opacity="0.0" d="m203.95801 282.64304l0 18.929138l-2.36615 -2.36615l0 -14.196838z" fill-rule="evenodd"/><path fill="#000000" fill-opacity="0.0" d="m181.84776 282.64304l22.110245 0l0 18.929138l-22.110245 0zm2.36615 2.36615l17.377945 0l0 14.196838l-17.377945 0zm-2.36615 -2.36615l2.36615 2.36615m-2.36615 16.562988l2.36615 -2.36615m19.744095 -16.562988l-2.36615 2.36615m2.36615 16.562988l-2.36615 -2.36615" fill-rule="evenodd"/><path fill="#ffffff" fill-opacity="0.2" d="m181.84776 282.64304l22.110245 0l-2.36615 2.36615l-17.377945 0z" fill-rule="evenodd"/><path fill="#000000" fill-opacity="0.2" d="m181.84776 301.57217l2.36615 -2.36615l17.377945 0l2.36615 2.36615z" fill-rule="evenodd"/><path fill="#ffffff" fill-opacity="0.4" d="m181.84776 282.64304l2.36615 2.36615l0 14.196838l-2.36615 2.36615z" fill-rule="evenodd"/><path fill="#000000" fill-opacity="0.4" d="m203.95801 282.64304l0 18.929138l-2.36615 -2.36615l0 -14.196838z" fill-rule="evenodd"/><path stroke="#000000" stroke-width="1.0" stroke-linejoin="round" stroke-linecap="butt" d="m181.84776 282.64304l22.110245 0l0 18.929138l-22.110245 0zm2.36615 2.36615l17.377945 0l0 14.196838l-17.377945 0zm-2.36615 -2.36615l2.36615 2.36615m-2.36615 16.562988l2.36615 -2.36615m19.744095 -16.562988l-2.36615 2.36615m2.36615 16.562988l-2.36615 -2.36615" fill-rule="evenodd"/><path fill="#000000" fill-opacity="0.0" d="m208.21391 285.0092l17.377945 0l0 14.196838l-17.377945 0z" fill-rule="evenodd"/><path fill="#000000" fill-opacity="0.0" d="m205.84776 282.64304l22.110245 0l-2.36615 2.36615l-17.377945 0z" fill-rule="evenodd"/><path fill="#000000" fill-opacity="0.0" d="m205.84776 301.57217l2.36615 -2.36615l17.377945 0l2.36615 2.36615z" fill-rule="evenodd"/><path fill="#000000" fill-opacity="0.0" d="m205.84776 282.64304l2.36615 2.36615l0 14.196838l-2.36615 2.36615z" fill-rule="evenodd"/><path fill="#000000" fill-opacity="0.0" d="m227.95801 282.64304l0 18.929138l-2.36615 -2.36615l0 -14.196838z" fill-rule="evenodd"/><path fill="#000000" fill-opacity="0.0" d="m205.84776 282.64304l22.110245 0l0 18.929138l-22.110245 0zm2.36615 2.36615l17.377945 0l0 14.196838l-17.377945 0zm-2.36615 -2.36615l2.36615 2.36615m-2.36615 16.562988l2.36615 -2.36615m19.744095 -16.562988l-2.36615 2.36615m2.36615 16.562988l-2.36615 -2.36615" fill-rule="evenodd"/><path fill="#ffffff" fill-opacity="0.2" d="m205.84776 282.64304l22.110245 0l-2.36615 2.36615l-17.377945 0z" fill-rule="evenodd"/><path fill="#000000" fill-opacity="0.2" d="m205.84776 301.57217l2.36615 -2.36615l17.377945 0l2.36615 2.36615z" fill-rule="evenodd"/><path fill="#ffffff" fill-opacity="0.4" d="m205.84776 282.64304l2.36615 2.36615l0 14.196838l-2.36615 2.36615z" fill-rule="evenodd"/><path fill="#000000" fill-opacity="0.4" d="m227.95801 282.64304l0 18.929138l-2.36615 -2.36615l0 -14.196838z" fill-rule="evenodd"/><path stroke="#000000" stroke-width="1.0" stroke-linejoin="round" stroke-linecap="butt" d="m205.84776 282.64304l22.110245 0l0 18.929138l-22.110245 0zm2.36615 2.36615l17.377945 0l0 14.196838l-17.377945 0zm-2.36615 -2.36615l2.36615 2.36615m-2.36615 16.562988l2.36615 -2.36615m19.744095 -16.562988l-2.36615 2.36615m2.36615 16.562988l-2.36615 -2.36615" fill-rule="evenodd"/><path fill="#000000" fill-opacity="0.0" d="m232.21391 285.0092l17.377945 0l0 14.196838l-17.377945 0z" fill-rule="evenodd"/><path fill="#000000" fill-opacity="0.0" d="m229.84776 282.64304l22.110245 0l-2.36615 2.36615l-17.377945 0z" fill-rule="evenodd"/><path fill="#000000" fill-opacity="0.0" d="m229.84776 301.57217l2.36615 -2.36615l17.377945 0l2.36615 2.36615z" fill-rule="evenodd"/><path fill="#000000" fill-opacity="0.0" d="m229.84776 282.64304l2.36615 2.36615l0 14.196838l-2.36615 2.36615z" fill-rule="evenodd"/><path fill="#000000" fill-opacity="0.0" d="m251.95801 282.64304l0 18.929138l-2.36615 -2.36615l0 -14.196838z" fill-rule="evenodd"/><path fill="#000000" fill-opacity="0.0" d="m229.84776 282.64304l22.110245 0l0 18.929138l-22.110245 0zm2.36615 2.36615l17.377945 0l0 14.196838l-17.377945 0zm-2.36615 -2.36615l2.36615 2.36615m-2.36615 16.562988l2.36615 -2.36615m19.744095 -16.562988l-2.36615 2.36615m2.36615 16.562988l-2.36615 -2.36615" fill-rule="evenodd"/><path fill="#ffffff" fill-opacity="0.2" d="m229.84776 282.64304l22.110245 0l-2.36615 2.36615l-17.377945 0z" fill-rule="evenodd"/><path fill="#000000" fill-opacity="0.2" d="m229.84776 301.57217l2.36615 -2.36615l17.377945 0l2.36615 2.36615z" fill-rule="evenodd"/><path fill="#ffffff" fill-opacity="0.4" d="m229.84776 282.64304l2.36615 2.36615l0 14.196838l-2.36615 2.36615z" fill-rule="evenodd"/><path fill="#000000" fill-opacity="0.4" d="m251.95801 282.64304l0 18.929138l-2.36615 -2.36615l0 -14.196838z" fill-rule="evenodd"/><path stroke="#000000" stroke-width="1.0" stroke-linejoin="round" stroke-linecap="butt" d="m229.84776 282.64304l22.110245 0l0 18.929138l-22.110245 0zm2.36615 2.36615l17.377945 0l0 14.196838l-17.377945 0zm-2.36615 -2.36615l2.36615 2.36615m-2.36615 16.562988l2.36615 -2.36615m19.744095 -16.562988l-2.36615 2.36615m2.36615 16.562988l-2.36615 -2.36615" fill-rule="evenodd"/><path fill="#000000" fill-opacity="0.0" d="m132.9029 251.87138l120.0 0l0 38.771652l-120.0 0z" fill-rule="evenodd"/><path fill="#2b2b2b" d="m147.87164 276.23138l-1.40625 0l0 -8.96875q-0.515625 0.484375 -1.34375 0.96875q-0.8125 0.484375 -1.46875 0.734375l0 -1.359375q1.171875 -0.5625 2.046875 -1.34375q0.890625 -0.796875 1.265625 -1.53125l0.90625 0l0 11.5zm3.8046875 -2.65625l1.359375 -0.125q0.171875 0.953125 0.65625 1.390625q0.484375 0.421875 1.234375 0.421875q0.65625 0 1.140625 -0.296875q0.484375 -0.296875 0.796875 -0.78125q0.3125 -0.5 0.515625 -1.34375q0.21875 -0.84375 0.21875 -1.71875q0 -0.09375 0 -0.28125q-0.421875 0.671875 -1.15625 1.09375q-0.734375 0.40625 -1.578125 0.40625q-1.421875 0 -2.40625 -1.03125q-0.984375 -1.03125 -0.984375 -2.71875q0 -1.734375 1.015625 -2.796875q1.03125 -1.0625 2.578125 -1.0625q1.125 0 2.046875 0.609375q0.921875 0.59375 1.40625 1.703125q0.484375 1.109375 0.484375 3.21875q0 2.203125 -0.484375 3.5q-0.46875 1.296875 -1.421875 1.984375q-0.9375 0.6875 -2.203125 0.6875q-1.34375 0 -2.203125 -0.75q-0.84375 -0.75 -1.015625 -2.109375zm5.765625 -5.046875q0 -1.21875 -0.65625 -1.921875q-0.640625 -0.71875 -1.546875 -0.71875q-0.9375 0 -1.640625 0.765625q-0.6875 0.765625 -0.6875 1.984375q0 1.09375 0.65625 1.78125q0.671875 0.6875 1.640625 0.6875q0.96875 0 1.59375 -0.6875q0.640625 -0.6875 0.640625 -1.890625zm10.3203125 6.34375l0 1.359375l-7.578125 0q-0.015625 -0.515625 0.171875 -0.984375q0.28125 -0.765625 0.921875 -1.515625q0.640625 -0.75 1.84375 -1.734375q1.859375 -1.53125 2.515625 -2.421875q0.65625 -0.90625 0.65625 -1.703125q0 -0.828125 -0.59375 -1.40625q-0.59375 -0.578125 -1.5625 -0.578125q-1.015625 0 -1.625 0.609375q-0.609375 0.609375 -0.609375 1.6875l-1.453125 -0.140625q0.15625 -1.625 1.125 -2.46875q0.96875 -0.84375 2.59375 -0.84375q1.65625 0 2.609375 0.921875q0.96875 0.90625 0.96875 2.25q0 0.6875 -0.28125 1.359375q-0.28125 0.65625 -0.9375 1.390625q-0.65625 0.734375 -2.171875 2.015625q-1.265625 1.0625 -1.625 1.453125q-0.359375 0.375 -0.59375 0.75l5.625 0zm2.2890625 1.359375l0 -1.609375l1.609375 0l0 1.609375l-1.609375 0zm8.9609375 0l-1.40625 0l0 -8.96875q-0.515625 0.484375 -1.34375 0.96875q-0.8125 0.484375 -1.46875 0.734375l0 -1.359375q1.171875 -0.5625 2.046875 -1.34375q0.890625 -0.796875 1.265625 -1.53125l0.90625 0l0 11.5zm10.8984375 -8.65625l-1.40625 0.109375q-0.1875 -0.828125 -0.53125 -1.203125q-0.5625 -0.59375 -1.40625 -0.59375q-0.671875 0 -1.171875 0.375q-0.671875 0.484375 -1.0625 1.421875q-0.375 0.921875 -0.390625 2.640625q0.515625 -0.78125 1.25 -1.15625q0.734375 -0.375 1.53125 -0.375q1.40625 0 2.390625 1.046875q1.0 1.03125 1.0 2.671875q0 1.078125 -0.46875 2.0q-0.46875 0.921875 -1.28125 1.421875q-0.8125 0.5 -1.84375 0.5q-1.75 0 -2.859375 -1.296875q-1.109375 -1.296875 -1.109375 -4.265625q0 -3.328125 1.21875 -4.828125q1.078125 -1.3125 2.890625 -1.3125q1.34375 0 2.203125 0.765625q0.875 0.75 1.046875 2.078125zm-5.75 4.9375q0 0.734375 0.3125 1.40625q0.3125 0.65625 0.859375 1.0q0.5625 0.34375 1.171875 0.34375q0.890625 0 1.53125 -0.71875q0.640625 -0.71875 0.640625 -1.953125q0 -1.1875 -0.640625 -1.859375q-0.625 -0.6875 -1.59375 -0.6875q-0.953125 0 -1.625 0.6875q-0.65625 0.671875 -0.65625 1.78125zm9.5078125 -2.5q-0.875 -0.3125 -1.296875 -0.90625q-0.421875 -0.59375 -0.421875 -1.421875q0 -1.25 0.890625 -2.09375q0.90625 -0.859375 2.40625 -0.859375q1.5 0 2.40625 0.875q0.921875 0.859375 0.921875 2.109375q0 0.796875 -0.421875 1.390625q-0.421875 0.59375 -1.265625 0.90625q1.046875 0.34375 1.59375 1.109375q0.5625 0.765625 0.5625 1.828125q0 1.46875 -1.046875 2.484375q-1.03125 1.0 -2.734375 1.0q-1.6875 0 -2.734375 -1.0q-1.03125 -1.015625 -1.03125 -2.515625q0 -1.125 0.5625 -1.875q0.5625 -0.75 1.609375 -1.03125zm-0.28125 -2.375q0 0.8125 0.515625 1.328125q0.53125 0.515625 1.375 0.515625q0.8125 0 1.328125 -0.515625q0.515625 -0.515625 0.515625 -1.25q0 -0.78125 -0.53125 -1.296875q-0.53125 -0.53125 -1.328125 -0.53125q-0.8125 0 -1.34375 0.515625q-0.53125 0.515625 -0.53125 1.234375zm-0.453125 5.28125q0 0.609375 0.28125 1.171875q0.296875 0.5625 0.859375 0.875q0.5625 0.296875 1.203125 0.296875q1.015625 0 1.671875 -0.640625q0.65625 -0.65625 0.65625 -1.65625q0 -1.015625 -0.6875 -1.671875q-0.671875 -0.671875 -1.6875 -0.671875q-0.984375 0 -1.640625 0.65625q-0.65625 0.65625 -0.65625 1.640625zm8.2578125 3.3125l0 -1.609375l1.609375 0l0 1.609375l-1.609375 0zm8.9609375 0l-1.40625 0l0 -8.96875q-0.515625 0.484375 -1.34375 0.96875q-0.8125 0.484375 -1.46875 0.734375l0 -1.359375q1.171875 -0.5625 2.046875 -1.34375q0.890625 -0.796875 1.265625 -1.53125l0.90625 0l0 11.5zm3.6015625 -3.0l1.46875 -0.125q0.171875 1.078125 0.765625 1.625q0.59375 0.53125 1.4375 0.53125q1.015625 0 1.71875 -0.765625q0.703125 -0.765625 0.703125 -2.03125q0 -1.203125 -0.671875 -1.890625q-0.671875 -0.703125 -1.765625 -0.703125q-0.6875 0 -1.234375 0.3125q-0.546875 0.3125 -0.859375 0.796875l-1.3125 -0.171875l1.109375 -5.875l5.6875 0l0 1.34375l-4.5625 0l-0.625 3.078125q1.03125 -0.71875 2.171875 -0.71875q1.5 0 2.53125 1.046875q1.03125 1.03125 1.03125 2.65625q0 1.5625 -0.90625 2.6875q-1.109375 1.40625 -3.015625 1.40625q-1.5625 0 -2.546875 -0.875q-0.984375 -0.890625 -1.125 -2.328125zm9.6796875 3.0l0 -1.609375l1.609375 0l0 1.609375l-1.609375 0zm3.6640625 -5.65625q0 -2.03125 0.40625 -3.265625q0.421875 -1.234375 1.25 -1.90625q0.828125 -0.671875 2.078125 -0.671875q0.921875 0 1.609375 0.375q0.703125 0.359375 1.15625 1.0625q0.453125 0.703125 0.703125 1.703125q0.265625 1.0 0.265625 2.703125q0 2.015625 -0.421875 3.265625q-0.40625 1.234375 -1.234375 1.921875q-0.828125 0.671875 -2.078125 0.671875q-1.65625 0 -2.609375 -1.203125q-1.125 -1.421875 -1.125 -4.65625zm1.4375 0q0 2.828125 0.65625 3.765625q0.671875 0.921875 1.640625 0.921875q0.96875 0 1.625 -0.9375q0.65625 -0.9375 0.65625 -3.75q0 -2.828125 -0.65625 -3.75q-0.65625 -0.9375 -1.640625 -0.9375q-0.96875 0 -1.546875 0.828125q-0.734375 1.046875 -0.734375 3.859375z" fill-rule="nonzero"/><path fill="#000000" fill-opacity="0.0" d="m83.32284 214.66405l119.99999 0l0 38.771652l-119.99999 0z" fill-rule="evenodd"/><path fill="#2b2b2b" d="m93.51034 239.02405l0 -11.453125l2.25 0l4.6875 7.640625l0 -7.640625l2.15625 0l0 11.453125l-2.328125 0l-4.609375 -7.46875l0 7.46875l-2.15625 0zm16.320312 -2.640625l2.1875 0.359375q-0.421875 1.203125 -1.328125 1.84375q-0.90625 0.625 -2.28125 0.625q-2.15625 0 -3.203125 -1.421875q-0.8125 -1.125 -0.8125 -2.859375q0 -2.0625 1.078125 -3.21875q1.078125 -1.171875 2.71875 -1.171875q1.859375 0 2.921875 1.21875q1.078125 1.21875 1.03125 3.75l-5.5 0q0.015625 0.96875 0.515625 1.515625q0.515625 0.546875 1.28125 0.546875q0.515625 0 0.859375 -0.28125q0.359375 -0.28125 0.53125 -0.90625zm0.125 -2.21875q-0.015625 -0.953125 -0.484375 -1.453125q-0.46875 -0.5 -1.140625 -0.5q-0.71875 0 -1.1875 0.53125q-0.46875 0.515625 -0.46875 1.421875l3.28125 0zm7.7734375 -3.4375l0 1.75l-1.5 0l0 3.34375q0 1.015625 0.046875 1.1875q0.046875 0.15625 0.1875 0.265625q0.15625 0.109375 0.375 0.109375q0.3125 0 0.890625 -0.203125l0.1875 1.703125q-0.765625 0.328125 -1.734375 0.328125q-0.59375 0 -1.078125 -0.203125q-0.46875 -0.203125 -0.703125 -0.515625q-0.21875 -0.3125 -0.296875 -0.859375q-0.078125 -0.375 -0.078125 -1.546875l0 -3.609375l-1.0 0l0 -1.75l1.0 0l0 -1.65625l2.203125 -1.28125l0 2.9375l1.5 0zm3.078125 8.296875l-2.625 -8.296875l2.125 0l1.5625 5.4375l1.421875 -5.4375l2.125 0l1.375 5.4375l1.5937424 -5.4375l2.15625 0l-2.6562424 8.296875l-2.109375 0l-1.4375 -5.34375l-1.40625 5.34375l-2.125 0zm10.382805 -4.265625q0 -1.09375 0.53125 -2.109375q0.546875 -1.03125 1.53125 -1.5625q1.0 -0.546875 2.21875 -0.546875q1.875 0 3.078125 1.21875q1.203125 1.21875 1.203125 3.09375q0 1.875 -1.21875 3.125q-1.203125 1.234375 -3.046875 1.234375q-1.140625 0 -2.1875 -0.515625q-1.03125 -0.515625 -1.578125 -1.515625q-0.53125 -1.0 -0.53125 -2.421875zm2.25 0.109375q0 1.234375 0.578125 1.890625q0.59375 0.65625 1.453125 0.65625q0.859375 0 1.4375 -0.65625q0.59375 -0.65625 0.59375 -1.90625q0 -1.21875 -0.59375 -1.875q-0.578125 -0.65625 -1.4375 -0.65625q-0.859375 0 -1.453125 0.65625q-0.578125 0.65625 -0.578125 1.890625zm10.1328125 4.15625l-2.1875 0l0 -8.296875l2.03125 0l0 1.171875q0.53125 -0.828125 0.9375 -1.09375q0.421875 -0.265625 0.953125 -0.265625q0.75 0 1.453125 0.40625l-0.6875 1.921875q-0.546875 -0.359375 -1.03125 -0.359375q-0.453125 0 -0.78125 0.25q-0.3125 0.25 -0.5 0.921875q-0.1875 0.65625 -0.1875 2.78125l0 2.5625zm4.0546875 0l0 -11.453125l2.1875 0l0 6.078125l2.578125 -2.921875l2.703125 0l-2.84375 3.03125l3.046875 5.265625l-2.375 0l-2.078125 -3.734375l-1.03125 1.078125l0 2.65625l-2.1875 0z" fill-rule="nonzero"/><path fill="#93c47d" d="m29.91076 361.12112l0 0c0 -11.045898 8.954485 -20.000397 20.000399 -20.000397l79.99919 0l0 0c5.3044434 0 10.391617 2.1071777 14.142426 5.8580017c3.7508087 3.7507935 5.8579865 8.837982 5.8579865 14.142395l0 93.32205c0 11.045898 -8.954483 20.000397 -20.000412 20.000397l-79.99919 0c-11.045914 0 -20.000399 -8.954498 -20.000399 -20.000397z" fill-rule="evenodd"/><path stroke="#000000" stroke-width="1.0" stroke-linejoin="round" stroke-linecap="butt" d="m29.91076 361.12112l0 0c0 -11.045898 8.954485 -20.000397 20.000399 -20.000397l79.99919 0l0 0c5.3044434 0 10.391617 2.1071777 14.142426 5.8580017c3.7508087 3.7507935 5.8579865 8.837982 5.8579865 14.142395l0 93.32205c0 11.045898 -8.954483 20.000397 -20.000412 20.000397l-79.99919 0c-11.045914 0 -20.000399 -8.954498 -20.000399 -20.000397z" fill-rule="evenodd"/><path fill="#d5a6bd" d="m276.76642 359.24976l0 0c0 -11.045929 8.954468 -20.000427 20.000397 -20.000427l79.999176 0l0 0c5.3044434 0 10.391632 2.1072083 14.142426 5.8580017c3.7507935 3.7507935 5.8580017 8.837982 5.8580017 14.142426l0 93.32202c0 11.045929 -8.954498 20.000397 -20.000427 20.000397l-79.999176 0c-11.045929 0 -20.000397 -8.954468 -20.000397 -20.000397z" fill-rule="evenodd"/><path stroke="#000000" stroke-width="1.0" stroke-linejoin="round" stroke-linecap="butt" d="m276.76642 359.24976l0 0c0 -11.045929 8.954468 -20.000427 20.000397 -20.000427l79.999176 0l0 0c5.3044434 0 10.391632 2.1072083 14.142426 5.8580017c3.7507935 3.7507935 5.8580017 8.837982 5.8580017 14.142426l0 93.32202c0 11.045929 -8.954498 20.000397 -20.000427 20.000397l-79.999176 0c-11.045929 0 -20.000397 -8.954468 -20.000397 -20.000397z" fill-rule="evenodd"/><path fill="#93c47d" d="m82.54068 392.57758l0 0c0 -3.6819763 2.9848328 -6.666809 6.6668015 -6.666809l86.22546 0c1.7681427 0 3.4638672 0.7023926 4.714142 1.9526672c1.2502594 1.2502441 1.952652 2.945984 1.952652 4.714142l0 26.666382c0 3.6819763 -2.9848175 6.666809 -6.666794 6.666809l-86.22546 0l0 0c-3.6819687 0 -6.6668015 -2.9848328 -6.6668015 -6.666809z" fill-rule="evenodd"/><path stroke="#000000" stroke-width="1.0" stroke-linejoin="round" stroke-linecap="butt" d="m82.54068 392.57758l0 0c0 -3.6819763 2.9848328 -6.666809 6.6668015 -6.666809l86.22546 0c1.7681427 0 3.4638672 0.7023926 4.714142 1.9526672c1.2502594 1.2502441 1.952652 2.945984 1.952652 4.714142l0 26.666382c0 3.6819763 -2.9848175 6.666809 -6.666794 6.666809l-86.22546 0l0 0c-3.6819687 0 -6.6668015 -2.9848328 -6.6668015 -6.666809z" fill-rule="evenodd"/><path fill="#000000" fill-opacity="0.0" d="m80.59843 384.9029l109.5118 0l0 42.015747l-109.5118 0z" fill-rule="evenodd"/><path fill="#ffffff" d="m93.5203 411.82288l-3.6875 -9.671875l1.734375 0l2.078125 5.796875q0.328125 0.9375 0.625 1.9375q0.203125 -0.765625 0.609375 -1.828125l2.140625 -5.90625l1.6875 0l-3.65625 9.671875l-1.53125 0zm13.265625 -3.109375l1.6875 0.203125q-0.40625 1.484375 -1.484375 2.3125q-1.078125 0.8125 -2.765625 0.8125q-2.125 0 -3.375 -1.296875q-1.234375 -1.3125 -1.234375 -3.671875q0 -2.453125 1.25 -3.796875q1.265625 -1.34375 3.265625 -1.34375q1.9375 0 3.15625 1.328125q1.234375 1.3125 1.234375 3.703125q0 0.15625 0 0.4375l-7.21875 0q0.09375 1.59375 0.90625 2.453125q0.8125 0.84375 2.015625 0.84375q0.90625 0 1.546875 -0.46875q0.640625 -0.484375 1.015625 -1.515625zm-5.390625 -2.65625l5.40625 0q-0.109375 -1.21875 -0.625 -1.828125q-0.78125 -0.953125 -2.03125 -0.953125q-1.125 0 -1.90625 0.765625q-0.765625 0.75 -0.84375 2.015625zm12.719467 4.296875l0.234375 1.453125q-0.6875 0.140625 -1.234375 0.140625q-0.890625 0 -1.390625 -0.28125q-0.484375 -0.28125 -0.6875 -0.734375q-0.203125 -0.46875 -0.203125 -1.9375l0 -5.578125l-1.203125 0l0 -1.265625l1.203125 0l0 -2.390625l1.625 -0.984375l0 3.375l1.65625 0l0 1.265625l-1.65625 0l0 5.671875q0 0.6875 0.078125 0.890625q0.09375 0.203125 0.28125 0.328125q0.203125 0.109375 0.578125 0.109375q0.265625 0 0.71875 -0.0625zm1.6051788 1.46875l0 -13.359375l1.640625 0l0 4.796875q1.140625 -1.328125 2.890625 -1.328125q1.078125 0 1.859375 0.421875q0.796875 0.421875 1.140625 1.171875q0.34375 0.75 0.34375 2.171875l0 6.125l-1.640625 0l0 -6.125q0 -1.234375 -0.53125 -1.796875q-0.53125 -0.5625 -1.515625 -0.5625q-0.71875 0 -1.359375 0.390625q-0.640625 0.375 -0.921875 1.015625q-0.265625 0.640625 -0.265625 1.78125l0 5.296875l-1.640625 0zm9.735092 -4.015625l0 -1.640625l5.0312424 0l0 1.640625l-5.0312424 0zm6.5407944 4.8125l1.59375 0.234375q0.109375 0.75 0.5625 1.078125q0.609375 0.453125 1.671875 0.453125q1.140625 0 1.75 -0.453125q0.625 -0.453125 0.84375 -1.265625q0.125 -0.5 0.109375 -2.109375q-1.0625 1.265625 -2.671875 1.265625q-2.0 0 -3.09375 -1.4375q-1.09375 -1.4375 -1.09375 -3.453125q0 -1.390625 0.5 -2.5625q0.515625 -1.171875 1.453125 -1.796875q0.953125 -0.640625 2.25 -0.640625q1.703125 0 2.8125 1.375l0 -1.15625l1.515625 0l0 8.359375q0 2.265625 -0.46875 3.203125q-0.453125 0.9375 -1.453125 1.484375q-0.984375 0.546875 -2.453125 0.546875q-1.71875 0 -2.796875 -0.78125q-1.0625 -0.765625 -1.03125 -2.34375zm1.359375 -5.8125q0 1.90625 0.75 2.78125q0.765625 0.875 1.90625 0.875q1.125 0 1.890625 -0.859375q0.765625 -0.875 0.765625 -2.734375q0 -1.78125 -0.796875 -2.671875q-0.78125 -0.90625 -1.890625 -0.90625q-1.09375 0 -1.859375 0.890625q-0.765625 0.875 -0.765625 2.625zm9.313217 5.015625l0 -9.671875l1.46875 0l0 1.46875q0.5625 -1.03125 1.03125 -1.359375q0.484375 -0.328125 1.0625 -0.328125q0.828125 0 1.6875 0.53125l-0.5625 1.515625q-0.609375 -0.359375 -1.203125 -0.359375q-0.546875 0 -0.96875 0.328125q-0.421875 0.328125 -0.609375 0.890625q-0.28125 0.875 -0.28125 1.921875l0 5.0625l-1.625 0zm12.853302 -3.109375l1.6875 0.203125q-0.40625 1.484375 -1.484375 2.3125q-1.078125 0.8125 -2.765625 0.8125q-2.125 0 -3.375 -1.296875q-1.234375 -1.3125 -1.234375 -3.671875q0 -2.453125 1.25 -3.796875q1.265625 -1.34375 3.265625 -1.34375q1.9375 0 3.15625 1.328125q1.234375 1.3125 1.234375 3.703125q0 0.15625 0 0.4375l-7.21875 0q0.09375 1.59375 0.90625 2.453125q0.8125 0.84375 2.015625 0.84375q0.90625 0 1.546875 -0.46875q0.640625 -0.484375 1.015625 -1.515625zm-5.390625 -2.65625l5.40625 0q-0.109375 -1.21875 -0.625 -1.828125q-0.78125 -0.953125 -2.03125 -0.953125q-1.125 0 -1.90625 0.765625q-0.765625 0.75 -0.84375 2.015625zm15.766342 2.65625l1.6875 0.203125q-0.40625 1.484375 -1.484375 2.3125q-1.078125 0.8125 -2.765625 0.8125q-2.125 0 -3.375 -1.296875q-1.234375 -1.3125 -1.234375 -3.671875q0 -2.453125 1.25 -3.796875q1.265625 -1.34375 3.265625 -1.34375q1.9375 0 3.15625 1.328125q1.234375 1.3125 1.234375 3.703125q0 0.15625 0 0.4375l-7.21875 0q0.09375 1.59375 0.90625 2.453125q0.8125 0.84375 2.015625 0.84375q0.90625 0 1.546875 -0.46875q0.640625 -0.484375 1.015625 -1.515625zm-5.390625 -2.65625l5.40625 0q-0.109375 -1.21875 -0.625 -1.828125q-0.78125 -0.953125 -2.03125 -0.953125q-1.125 0 -1.90625 0.765625q-0.765625 0.75 -0.84375 2.015625zm9.141342 5.765625l0 -9.671875l1.46875 0l0 1.375q1.0625 -1.59375 3.078125 -1.59375q0.875 0 1.609375 0.3125q0.734375 0.3125 1.09375 0.828125q0.375 0.5 0.515625 1.203125q0.09375 0.453125 0.09375 1.59375l0 5.953125l-1.640625 0l0 -5.890625q0 -1.0 -0.203125 -1.484375q-0.1875 -0.5 -0.671875 -0.796875q-0.484375 -0.296875 -1.140625 -0.296875q-1.046875 0 -1.8125 0.671875q-0.75 0.65625 -0.75 2.515625l0 5.28125l-1.640625 0z" fill-rule="nonzero"/><path fill="#000000" fill-opacity="0.0" d="m29.91076 435.3517l120.00001 0l0 38.771637l-120.00001 0z" fill-rule="evenodd"/><path fill="#efefef" d="m44.879513 459.7117l-1.40625 0l0 -8.96875q-0.515625 0.484375 -1.34375 0.96875q-0.8125 0.484375 -1.46875 0.734375l0 -1.359375q1.171875 -0.5625 2.046875 -1.34375q0.890625 -0.796875 1.265625 -1.53125l0.90625 0l0 11.5zm3.8046875 -2.65625l1.359375 -0.125q0.171875 0.953125 0.65625 1.390625q0.484375 0.421875 1.234375 0.421875q0.65625 0 1.140625 -0.296875q0.484375 -0.296875 0.796875 -0.78125q0.3125 -0.5 0.515625 -1.34375q0.21875 -0.84375 0.21875 -1.71875q0 -0.09375 0 -0.28125q-0.421875 0.671875 -1.15625 1.09375q-0.734375 0.40625 -1.578125 0.40625q-1.421875 0 -2.40625 -1.03125q-0.984375 -1.03125 -0.984375 -2.71875q0 -1.734375 1.015625 -2.796875q1.03125 -1.0625 2.578125 -1.0625q1.125 0 2.046875 0.609375q0.921875 0.59375 1.40625 1.703125q0.484375 1.109375 0.484375 3.21875q0 2.203125 -0.484375 3.5q-0.46875 1.296875 -1.421875 1.984375q-0.9375 0.6875 -2.203125 0.6875q-1.34375 0 -2.203125 -0.75q-0.84375 -0.75 -1.015625 -2.109375zm5.765625 -5.046875q0 -1.21875 -0.65625 -1.921875q-0.640625 -0.71875 -1.546875 -0.71875q-0.9375 0 -1.640625 0.765625q-0.6875 0.765625 -0.6875 1.984375q0 1.09375 0.65625 1.78125q0.671875 0.6875 1.640625 0.6875q0.96875 0 1.59375 -0.6875q0.640625 -0.6875 0.640625 -1.890625zm10.320309 6.34375l0 1.359375l-7.578121 0q-0.015625 -0.515625 0.171875 -0.984375q0.28125 -0.765625 0.921875 -1.515625q0.640625 -0.75 1.84375 -1.734375q1.859375 -1.53125 2.515625 -2.421875q0.65625 -0.90625 0.65625 -1.703125q0 -0.828125 -0.59375 -1.40625q-0.59375 -0.578125 -1.5625 -0.578125q-1.015625 0 -1.625 0.609375q-0.609375 0.609375 -0.609375 1.6875l-1.453125 -0.140625q0.15625 -1.625 1.125 -2.46875q0.96875 -0.84375 2.59375 -0.84375q1.65625 0 2.609375 0.921875q0.9687462 0.90625 0.9687462 2.25q0 0.6875 -0.28125 1.359375q-0.28125 0.65625 -0.9374962 1.390625q-0.65625 0.734375 -2.171875 2.015625q-1.265625 1.0625 -1.625 1.453125q-0.359375 0.375 -0.59375 0.75l5.624996 0zm2.2890625 1.359375l0 -1.609375l1.609375 0l0 1.609375l-1.609375 0zm8.9609375 0l-1.40625 0l0 -8.96875q-0.515625 0.484375 -1.34375 0.96875q-0.8125 0.484375 -1.46875 0.734375l0 -1.359375q1.171875 -0.5625 2.046875 -1.34375q0.890625 -0.796875 1.265625 -1.53125l0.90625 0l0 11.5zm10.8984375 -8.65625l-1.40625 0.109375q-0.1875 -0.828125 -0.53125 -1.203125q-0.5625 -0.59375 -1.40625 -0.59375q-0.671875 0 -1.171875 0.375q-0.671875 0.484375 -1.0625 1.421875q-0.375 0.921875 -0.390625 2.640625q0.515625 -0.78125 1.25 -1.15625q0.734375 -0.375 1.53125 -0.375q1.40625 0 2.390625 1.046875q1.0 1.03125 1.0 2.671875q0 1.078125 -0.46875 2.0q-0.46875 0.921875 -1.28125 1.421875q-0.8125 0.5 -1.84375 0.5q-1.75 0 -2.859375 -1.296875q-1.109375 -1.296875 -1.109375 -4.265625q0 -3.328125 1.21875 -4.828125q1.078125 -1.3125 2.890625 -1.3125q1.34375 0 2.203125 0.765625q0.875 0.75 1.046875 2.078125zm-5.75 4.9375q0 0.734375 0.3125 1.40625q0.3125 0.65625 0.859375 1.0q0.5625 0.34375 1.171875 0.34375q0.890625 0 1.53125 -0.71875q0.640625 -0.71875 0.640625 -1.953125q0 -1.1875 -0.640625 -1.859375q-0.625 -0.6875 -1.59375 -0.6875q-0.953125 0 -1.625 0.6875q-0.65625 0.671875 -0.65625 1.78125zm9.5078125 -2.5q-0.875 -0.3125 -1.296875 -0.90625q-0.421875 -0.59375 -0.421875 -1.421875q0 -1.25 0.890625 -2.09375q0.90625 -0.859375 2.40625 -0.859375q1.5 0 2.40625 0.875q0.921875 0.859375 0.921875 2.109375q0 0.796875 -0.421875 1.390625q-0.421875 0.59375 -1.265625 0.90625q1.046875 0.34375 1.59375 1.109375q0.5625 0.765625 0.5625 1.828125q0 1.46875 -1.046875 2.484375q-1.03125 1.0 -2.734375 1.0q-1.6875 0 -2.734375 -1.0q-1.03125 -1.015625 -1.03125 -2.515625q0 -1.125 0.5625 -1.875q0.5625 -0.75 1.609375 -1.03125zm-0.28125 -2.375q0 0.8125 0.515625 1.328125q0.53125 0.515625 1.375 0.515625q0.8125 0 1.328125 -0.515625q0.515625 -0.515625 0.515625 -1.25q0 -0.78125 -0.53125 -1.296875q-0.53125 -0.53125 -1.328125 -0.53125q-0.8125 0 -1.34375 0.515625q-0.53125 0.515625 -0.53125 1.234375zm-0.453125 5.28125q0 0.609375 0.28125 1.171875q0.296875 0.5625 0.859375 0.875q0.5625 0.296875 1.203125 0.296875q1.015625 0 1.671875 -0.640625q0.65625 -0.65625 0.65625 -1.65625q0 -1.015625 -0.6875 -1.671875q-0.671875 -0.671875 -1.6875 -0.671875q-0.984375 0 -1.640625 0.65625q-0.65625 0.65625 -0.65625 1.640625zm8.2578125 3.3125l0 -1.609375l1.609375 0l0 1.609375l-1.609375 0zm8.9609375 0l-1.40625 0l0 -8.96875q-0.515625 0.484375 -1.34375 0.96875q-0.8125 0.484375 -1.46875 0.734375l0 -1.359375q1.171875 -0.5625 2.046875 -1.34375q0.890625 -0.796875 1.265625 -1.53125l0.90625 0l0 11.5zm3.6015625 -3.0l1.46875 -0.125q0.171875 1.078125 0.765625 1.625q0.59375 0.53125 1.4375 0.53125q1.015625 0 1.71875 -0.765625q0.703125 -0.765625 0.703125 -2.03125q0 -1.203125 -0.671875 -1.890625q-0.671875 -0.703125 -1.765625 -0.703125q-0.6875 0 -1.234375 0.3125q-0.546875 0.3125 -0.859375 0.796875l-1.3125 -0.171875l1.109375 -5.875l5.6875 0l0 1.34375l-4.5625 0l-0.625 3.078125q1.03125 -0.71875 2.171875 -0.71875q1.5 0 2.53125 1.046875q1.03125 1.03125 1.03125 2.65625q0 1.5625 -0.90625 2.6875q-1.109375 1.40625 -3.015625 1.40625q-1.5625 0 -2.546875 -0.875q-0.984375 -0.890625 -1.125 -2.328125zm9.6796875 3.0l0 -1.609375l1.609375 0l0 1.609375l-1.609375 0zm3.6640625 -3.03125l1.40625 -0.1875q0.25 1.203125 0.828125 1.734375q0.578125 0.515625 1.421875 0.515625q0.9843826 0 1.6718826 -0.6875q0.6875 -0.6875 0.6875 -1.703125q0 -0.96875 -0.640625 -1.59375q-0.625 -0.625 -1.6093826 -0.625q-0.390625 0 -0.984375 0.15625l0.15625 -1.234375q0.140625 0.015625 0.21875 0.015625q0.9062576 0 1.6250076 -0.46875q0.71875 -0.46875 0.71875 -1.453125q0 -0.765625 -0.53125 -1.265625q-0.515625 -0.515625 -1.3437576 -0.515625q-0.828125 0 -1.375 0.515625q-0.546875 0.515625 -0.703125 1.546875l-1.40625 -0.25q0.265625 -1.421875 1.171875 -2.1875q0.921875 -0.78125 2.28125 -0.78125q0.9375076 0 1.7187576 0.40625q0.796875 0.390625 1.203125 1.09375q0.421875 0.6875 0.421875 1.46875q0 0.75 -0.40625 1.359375q-0.390625 0.609375 -1.171875 0.96875q1.015625 0.234375 1.578125 0.96875q0.5625 0.734375 0.5625 1.84375q0 1.5 -1.09375 2.546875q-1.09375 1.046875 -2.7656326 1.046875q-1.5 0 -2.5 -0.890625q-1.0 -0.90625 -1.140625 -2.34375z" fill-rule="nonzero"/><path fill="#000000" fill-opacity="0.0" d="m276.76642 435.3517l120.0 0l0 38.771637l-120.0 0z" fill-rule="evenodd"/><path fill="#efefef" d="m291.73517 459.7117l-1.40625 0l0 -8.96875q-0.515625 0.484375 -1.34375 0.96875q-0.8125 0.484375 -1.46875 0.734375l0 -1.359375q1.171875 -0.5625 2.046875 -1.34375q0.890625 -0.796875 1.265625 -1.53125l0.90625 0l0 11.5zm3.8046875 -2.65625l1.359375 -0.125q0.171875 0.953125 0.65625 1.390625q0.484375 0.421875 1.234375 0.421875q0.65625 0 1.140625 -0.296875q0.484375 -0.296875 0.796875 -0.78125q0.3125 -0.5 0.515625 -1.34375q0.21875 -0.84375 0.21875 -1.71875q0 -0.09375 0 -0.28125q-0.421875 0.671875 -1.15625 1.09375q-0.734375 0.40625 -1.578125 0.40625q-1.421875 0 -2.40625 -1.03125q-0.984375 -1.03125 -0.984375 -2.71875q0 -1.734375 1.015625 -2.796875q1.03125 -1.0625 2.578125 -1.0625q1.125 0 2.046875 0.609375q0.921875 0.59375 1.40625 1.703125q0.484375 1.109375 0.484375 3.21875q0 2.203125 -0.484375 3.5q-0.46875 1.296875 -1.421875 1.984375q-0.9375 0.6875 -2.203125 0.6875q-1.34375 0 -2.203125 -0.75q-0.84375 -0.75 -1.015625 -2.109375zm5.765625 -5.046875q0 -1.21875 -0.65625 -1.921875q-0.640625 -0.71875 -1.546875 -0.71875q-0.9375 0 -1.640625 0.765625q-0.6875 0.765625 -0.6875 1.984375q0 1.09375 0.65625 1.78125q0.671875 0.6875 1.640625 0.6875q0.96875 0 1.59375 -0.6875q0.640625 -0.6875 0.640625 -1.890625zm10.3203125 6.34375l0 1.359375l-7.578125 0q-0.015625 -0.515625 0.171875 -0.984375q0.28125 -0.765625 0.921875 -1.515625q0.640625 -0.75 1.84375 -1.734375q1.859375 -1.53125 2.515625 -2.421875q0.65625 -0.90625 0.65625 -1.703125q0 -0.828125 -0.59375 -1.40625q-0.59375 -0.578125 -1.5625 -0.578125q-1.015625 0 -1.625 0.609375q-0.609375 0.609375 -0.609375 1.6875l-1.453125 -0.140625q0.15625 -1.625 1.125 -2.46875q0.96875 -0.84375 2.59375 -0.84375q1.65625 0 2.609375 0.921875q0.96875 0.90625 0.96875 2.25q0 0.6875 -0.28125 1.359375q-0.28125 0.65625 -0.9375 1.390625q-0.65625 0.734375 -2.171875 2.015625q-1.265625 1.0625 -1.625 1.453125q-0.359375 0.375 -0.59375 0.75l5.625 0zm2.2890625 1.359375l0 -1.609375l1.609375 0l0 1.609375l-1.609375 0zm8.9609375 0l-1.40625 0l0 -8.96875q-0.515625 0.484375 -1.34375 0.96875q-0.8125 0.484375 -1.46875 0.734375l0 -1.359375q1.171875 -0.5625 2.046875 -1.34375q0.890625 -0.796875 1.265625 -1.53125l0.90625 0l0 11.5zm10.8984375 -8.65625l-1.40625 0.109375q-0.1875 -0.828125 -0.53125 -1.203125q-0.5625 -0.59375 -1.40625 -0.59375q-0.671875 0 -1.171875 0.375q-0.671875 0.484375 -1.0625 1.421875q-0.375 0.921875 -0.390625 2.640625q0.515625 -0.78125 1.25 -1.15625q0.734375 -0.375 1.53125 -0.375q1.40625 0 2.390625 1.046875q1.0 1.03125 1.0 2.671875q0 1.078125 -0.46875 2.0q-0.46875 0.921875 -1.28125 1.421875q-0.8125 0.5 -1.84375 0.5q-1.75 0 -2.859375 -1.296875q-1.109375 -1.296875 -1.109375 -4.265625q0 -3.328125 1.21875 -4.828125q1.078125 -1.3125 2.890625 -1.3125q1.34375 0 2.203125 0.765625q0.875 0.75 1.046875 2.078125zm-5.75 4.9375q0 0.734375 0.3125 1.40625q0.3125 0.65625 0.859375 1.0q0.5625 0.34375 1.171875 0.34375q0.890625 0 1.53125 -0.71875q0.640625 -0.71875 0.640625 -1.953125q0 -1.1875 -0.640625 -1.859375q-0.625 -0.6875 -1.59375 -0.6875q-0.953125 0 -1.625 0.6875q-0.65625 0.671875 -0.65625 1.78125zm9.5078125 -2.5q-0.875 -0.3125 -1.296875 -0.90625q-0.421875 -0.59375 -0.421875 -1.421875q0 -1.25 0.890625 -2.09375q0.90625 -0.859375 2.40625 -0.859375q1.5 0 2.40625 0.875q0.921875 0.859375 0.921875 2.109375q0 0.796875 -0.421875 1.390625q-0.421875 0.59375 -1.265625 0.90625q1.046875 0.34375 1.59375 1.109375q0.5625 0.765625 0.5625 1.828125q0 1.46875 -1.046875 2.484375q-1.03125 1.0 -2.734375 1.0q-1.6875 0 -2.734375 -1.0q-1.03125 -1.015625 -1.03125 -2.515625q0 -1.125 0.5625 -1.875q0.5625 -0.75 1.609375 -1.03125zm-0.28125 -2.375q0 0.8125 0.515625 1.328125q0.53125 0.515625 1.375 0.515625q0.8125 0 1.328125 -0.515625q0.515625 -0.515625 0.515625 -1.25q0 -0.78125 -0.53125 -1.296875q-0.53125 -0.53125 -1.328125 -0.53125q-0.8125 0 -1.34375 0.515625q-0.53125 0.515625 -0.53125 1.234375zm-0.453125 5.28125q0 0.609375 0.28125 1.171875q0.296875 0.5625 0.859375 0.875q0.5625 0.296875 1.203125 0.296875q1.015625 0 1.671875 -0.640625q0.65625 -0.65625 0.65625 -1.65625q0 -1.015625 -0.6875 -1.671875q-0.671875 -0.671875 -1.6875 -0.671875q-0.984375 0 -1.640625 0.65625q-0.65625 0.65625 -0.65625 1.640625zm8.2578125 3.3125l0 -1.609375l1.609375 0l0 1.609375l-1.609375 0zm8.9609375 0l-1.40625 0l0 -8.96875q-0.515625 0.484375 -1.34375 0.96875q-0.8125 0.484375 -1.46875 0.734375l0 -1.359375q1.171875 -0.5625 2.046875 -1.34375q0.890625 -0.796875 1.265625 -1.53125l0.90625 0l0 11.5zm3.6015625 -3.0l1.46875 -0.125q0.171875 1.078125 0.765625 1.625q0.59375 0.53125 1.4375 0.53125q1.015625 0 1.71875 -0.765625q0.703125 -0.765625 0.703125 -2.03125q0 -1.203125 -0.671875 -1.890625q-0.671875 -0.703125 -1.765625 -0.703125q-0.6875 0 -1.234375 0.3125q-0.546875 0.3125 -0.859375 0.796875l-1.3125 -0.171875l1.109375 -5.875l5.6875 0l0 1.34375l-4.5625 0l-0.625 3.078125q1.03125 -0.71875 2.171875 -0.71875q1.5 0 2.53125 1.046875q1.03125 1.03125 1.03125 2.65625q0 1.5625 -0.90625 2.6875q-1.109375 1.40625 -3.015625 1.40625q-1.5625 0 -2.546875 -0.875q-0.984375 -0.890625 -1.125 -2.328125zm9.6796875 3.0l0 -1.609375l1.609375 0l0 1.609375l-1.609375 0zm8.1640625 0l0 -2.75l-4.96875 0l0 -1.28125l5.234375 -7.421875l1.140625 0l0 7.421875l1.546875 0l0 1.28125l-1.546875 0l0 2.75l-1.40625 0zm0 -4.03125l0 -5.171875l-3.578125 5.171875l3.578125 0z" fill-rule="nonzero"/><path fill="#d5a6bd" d="m243.71654 392.57758l0 0c0 -3.6819763 2.9848328 -6.666809 6.666794 -6.666809l86.225464 0c1.7681274 0 3.4638672 0.7023926 4.714142 1.9526672c1.2502747 1.2502441 1.9526672 2.945984 1.9526672 4.714142l0 26.666382c0 3.6819763 -2.9848328 6.666809 -6.666809 6.666809l-86.225464 0l0 0c-3.681961 0 -6.666794 -2.9848328 -6.666794 -6.666809z" fill-rule="evenodd"/><path stroke="#000000" stroke-width="1.0" stroke-linejoin="round" stroke-linecap="butt" d="m243.71654 392.57758l0 0c0 -3.6819763 2.9848328 -6.666809 6.666794 -6.666809l86.225464 0c1.7681274 0 3.4638672 0.7023926 4.714142 1.9526672c1.2502747 1.2502441 1.9526672 2.945984 1.9526672 4.714142l0 26.666382c0 3.6819763 -2.9848328 6.666809 -6.666809 6.666809l-86.225464 0l0 0c-3.681961 0 -6.666794 -2.9848328 -6.666794 -6.666809z" fill-rule="evenodd"/><path fill="#000000" fill-opacity="0.0" d="m243.71654 384.9029l109.511795 0l0 42.015747l-109.511795 0z" fill-rule="evenodd"/><path fill="#ffffff" d="m256.6384 411.82288l-3.6874847 -9.671875l1.734375 0l2.0781097 5.796875q0.328125 0.9375 0.625 1.9375q0.203125 -0.765625 0.609375 -1.828125l2.140625 -5.90625l1.6875 0l-3.65625 9.671875l-1.53125 0zm13.265625 -3.109375l1.6875 0.203125q-0.40625 1.484375 -1.484375 2.3125q-1.078125 0.8125 -2.765625 0.8125q-2.125 0 -3.375 -1.296875q-1.234375 -1.3125 -1.234375 -3.671875q0 -2.453125 1.25 -3.796875q1.265625 -1.34375 3.265625 -1.34375q1.9375 0 3.15625 1.328125q1.234375 1.3125 1.234375 3.703125q0 0.15625 0 0.4375l-7.21875 0q0.09375 1.59375 0.90625 2.453125q0.8125 0.84375 2.015625 0.84375q0.90625 0 1.546875 -0.46875q0.640625 -0.484375 1.015625 -1.515625zm-5.390625 -2.65625l5.40625 0q-0.109375 -1.21875 -0.625 -1.828125q-0.78125 -0.953125 -2.03125 -0.953125q-1.125 0 -1.90625 0.765625q-0.765625 0.75 -0.84375 2.015625zm12.719482 4.296875l0.234375 1.453125q-0.6875 0.140625 -1.234375 0.140625q-0.890625 0 -1.390625 -0.28125q-0.484375 -0.28125 -0.6875 -0.734375q-0.203125 -0.46875 -0.203125 -1.9375l0 -5.578125l-1.203125 0l0 -1.265625l1.203125 0l0 -2.390625l1.625 -0.984375l0 3.375l1.65625 0l0 1.265625l-1.65625 0l0 5.671875q0 0.6875 0.078125 0.890625q0.09375 0.203125 0.28125 0.328125q0.203125 0.109375 0.578125 0.109375q0.265625 0 0.71875 -0.0625zm1.6051636 1.46875l0 -13.359375l1.640625 0l0 4.796875q1.140625 -1.328125 2.890625 -1.328125q1.078125 0 1.859375 0.421875q0.796875 0.421875 1.140625 1.171875q0.34375 0.75 0.34375 2.171875l0 6.125l-1.640625 0l0 -6.125q0 -1.234375 -0.53125 -1.796875q-0.53125 -0.5625 -1.515625 -0.5625q-0.71875 0 -1.359375 0.390625q-0.640625 0.375 -0.921875 1.015625q-0.265625 0.640625 -0.265625 1.78125l0 5.296875l-1.640625 0zm9.735107 -4.015625l0 -1.640625l5.03125 0l0 1.640625l-5.03125 0zm6.243927 -0.828125q0 -2.6875 1.484375 -3.96875q1.25 -1.078125 3.046875 -1.078125q2.0 0 3.265625 1.3125q1.265625 1.296875 1.265625 3.609375q0 1.859375 -0.5625 2.9375q-0.5625 1.0625 -1.640625 1.65625q-1.0625 0.59375 -2.328125 0.59375q-2.03125 0 -3.28125 -1.296875q-1.25 -1.3125 -1.25 -3.765625zm1.6875 0q0 1.859375 0.796875 2.796875q0.8125 0.921875 2.046875 0.921875q1.21875 0 2.03125 -0.921875q0.8125 -0.9375 0.8125 -2.84375q0 -1.796875 -0.8125 -2.71875q-0.8125 -0.921875 -2.03125 -0.921875q-1.234375 0 -2.046875 0.921875q-0.796875 0.90625 -0.796875 2.765625zm12.875702 3.375l0.234375 1.453125q-0.6875 0.140625 -1.234375 0.140625q-0.890625 0 -1.390625 -0.28125q-0.484375 -0.28125 -0.6875 -0.734375q-0.203125 -0.46875 -0.203125 -1.9375l0 -5.578125l-1.203125 0l0 -1.265625l1.203125 0l0 -2.390625l1.625 -0.984375l0 3.375l1.65625 0l0 1.265625l-1.65625 0l0 5.671875q0 0.6875 0.078125 0.890625q0.09375 0.203125 0.28125 0.328125q0.203125 0.109375 0.578125 0.109375q0.265625 0 0.71875 -0.0625zm1.6051941 1.46875l0 -13.359375l1.640625 0l0 4.796875q1.140625 -1.328125 2.890625 -1.328125q1.078125 0 1.859375 0.421875q0.796875 0.421875 1.140625 1.171875q0.34375 0.75 0.34375 2.171875l0 6.125l-1.640625 0l0 -6.125q0 -1.234375 -0.53125 -1.796875q-0.53125 -0.5625 -1.515625 -0.5625q-0.71875 0 -1.359375 0.390625q-0.640625 0.375 -0.921875 1.015625q-0.265625 0.640625 -0.265625 1.78125l0 5.296875l-1.640625 0zm17.000702 -3.109375l1.6875 0.203125q-0.40625 1.484375 -1.484375 2.3125q-1.078125 0.8125 -2.765625 0.8125q-2.125 0 -3.375 -1.296875q-1.234375 -1.3125 -1.234375 -3.671875q0 -2.453125 1.25 -3.796875q1.265625 -1.34375 3.265625 -1.34375q1.9375 0 3.15625 1.328125q1.234375 1.3125 1.234375 3.703125q0 0.15625 0 0.4375l-7.21875 0q0.09375 1.59375 0.90625 2.453125q0.8125 0.84375 2.015625 0.84375q0.90625 0 1.546875 -0.46875q0.640625 -0.484375 1.015625 -1.515625zm-5.390625 -2.65625l5.40625 0q-0.109375 -1.21875 -0.625 -1.828125q-0.78125 -0.953125 -2.03125 -0.953125q-1.125 0 -1.90625 0.765625q-0.765625 0.75 -0.84375 2.015625zm9.125732 5.765625l0 -9.671875l1.46875 0l0 1.46875q0.5625 -1.03125 1.03125 -1.359375q0.484375 -0.328125 1.0625 -0.328125q0.828125 0 1.6875 0.53125l-0.5625 1.515625q-0.609375 -0.359375 -1.203125 -0.359375q-0.546875 0 -0.96875 0.328125q-0.421875 0.328125 -0.609375 0.890625q-0.28125 0.875 -0.28125 1.921875l0 5.0625l-1.625 0z" fill-rule="nonzero"/><path fill="#000000" fill-opacity="0.0" d="m274.96588 127.03937l-65.35434 133.29135" fill-rule="evenodd"/><path stroke="#073763" stroke-width="3.0" stroke-linejoin="round" stroke-linecap="butt" d="m274.96588 127.03937l-65.35434 133.29135" fill-rule="evenodd"/><path fill="#000000" fill-opacity="0.0" d="m135.35432 384.9029l57.54332 -83.33859" fill-rule="evenodd"/><path stroke="#351c75" stroke-width="3.0" stroke-linejoin="round" stroke-linecap="butt" d="m135.35432 384.9029l57.54332 -83.33859" fill-rule="evenodd"/><path fill="#000000" fill-opacity="0.0" d="m298.47244 384.9029l-81.5748 -83.33859" fill-rule="evenodd"/><path stroke="#351c75" stroke-width="3.0" stroke-linejoin="round" stroke-linecap="butt" d="m298.47244 384.9029l-81.5748 -83.33859" fill-rule="evenodd"/><path fill="#000000" fill-opacity="0.0" d="m219.71654 285.9357l119.999985 0l0 38.771637l-119.999985 0z" fill-rule="evenodd"/><path fill="#ff0000" d="m232.15404 310.2957l-3.34375 -8.296875l2.296875 0l1.5625 4.234375l0.453125 1.40625q0.1875 -0.53125 0.234375 -0.703125q0.109375 -0.359375 0.234375 -0.703125l1.578125 -4.234375l2.25 0l-3.296875 8.296875l-1.96875 0zm6.3671875 -3.0625l0 -2.1875l4.3125 0l0 2.1875l-4.3125 0zm13.125 3.0625l-2.203125 0l0 -4.234375q0 -1.34375 -0.140625 -1.734375q-0.140625 -0.40625 -0.453125 -0.625q-0.3125 -0.21875 -0.765625 -0.21875q-0.5625 0 -1.015625 0.3125q-0.453125 0.3125 -0.625 0.828125q-0.171875 0.515625 -0.171875 1.90625l0 3.765625l-2.1875 0l0 -8.296875l2.03125 0l0 1.21875q1.09375 -1.40625 2.734375 -1.40625q0.734375 0 1.328125 0.265625q0.609375 0.25 0.90625 0.65625q0.3125 0.40625 0.4375 0.921875q0.125 0.515625 0.125 1.484375l0 5.15625zm7.0234222 -2.640625l2.1875 0.359375q-0.421875 1.203125 -1.328125 1.84375q-0.90625 0.625 -2.28125 0.625q-2.1562347 0 -3.2031097 -1.421875q-0.8125 -1.125 -0.8125 -2.859375q0 -2.0625 1.078125 -3.21875q1.078125 -1.171875 2.7187347 -1.171875q1.859375 0 2.921875 1.21875q1.078125 1.21875 1.03125 3.75l-5.4999847 0q0.015625 0.96875 0.515625 1.515625q0.51560974 0.546875 1.2812347 0.546875q0.515625 0 0.859375 -0.28125q0.359375 -0.28125 0.53125 -0.90625zm0.125 -2.21875q-0.015625 -0.953125 -0.484375 -1.453125q-0.46875 -0.5 -1.140625 -0.5q-0.71875 0 -1.1874847 0.53125q-0.46875 0.515625 -0.46875 1.421875l3.2812347 0zm7.7734375 -3.4375l0 1.75l-1.5 0l0 3.34375q0 1.015625 0.046875 1.1875q0.046875 0.15625 0.1875 0.265625q0.15625 0.109375 0.375 0.109375q0.3125 0 0.890625 -0.203125l0.1875 1.703125q-0.765625 0.328125 -1.734375 0.328125q-0.59375 0 -1.078125 -0.203125q-0.46875 -0.203125 -0.703125 -0.515625q-0.21875 -0.3125 -0.296875 -0.859375q-0.078125 -0.375 -0.078125 -1.546875l0 -3.609375l-1.0 0l0 -1.75l1.0 0l0 -1.65625l2.203125 -1.28125l0 2.9375l1.5 0zm1.28125 5.234375l0 -2.1875l4.3125 0l0 2.1875l-4.3125 0zm8.8125 -8.4375q1.671875 0 2.609375 1.1875q1.109375 1.40625 1.109375 4.65625q0 3.25 -1.125 4.671875q-0.921875 1.1875 -2.59375 1.1875q-1.671875 0 -2.703125 -1.28125q-1.015625 -1.296875 -1.015625 -4.59375q0 -3.234375 1.125 -4.65625q0.9375 -1.171875 2.59375 -1.171875zm0 1.8125q-0.390625 0 -0.703125 0.265625q-0.3125 0.25 -0.484375 0.90625q-0.234375 0.84375 -0.234375 2.859375q0 2.015625 0.203125 2.78125q0.203125 0.75 0.515625 1.0q0.3125 0.25 0.703125 0.25q0.40625 0 0.71875 -0.25q0.3125 -0.265625 0.484375 -0.921875q0.21875 -0.84375 0.21875 -2.859375q0 -2.015625 -0.203125 -2.765625q-0.203125 -0.75 -0.515625 -1.0q-0.296875 -0.265625 -0.703125 -0.265625z" fill-rule="nonzero"/></g></svg>