<svg version="1.1" viewBox="0.0 0.0 463.9475065616798 510.2178477690289" fill="none" stroke="none" stroke-linecap="square" stroke-miterlimit="10" xmlns:xlink="http://www.w3.org/1999/xlink" xmlns="http://www.w3.org/2000/svg"><clipPath id="p.0"><path d="m0 0l463.9475 0l0 510.21783l-463.9475 0l0 -510.21783z" clip-rule="nonzero"/></clipPath><g clip-path="url(#p.0)"><path fill="#000000" fill-opacity="0.0" d="m0 0l463.9475 0l0 510.21783l-463.9475 0z" fill-rule="evenodd"/><path fill="#ffffff" d="m0 71.11428l0 0c0 -39.27533 31.83895 -71.11428 71.11428 -71.11428l284.4486 0l0 0c18.860657 0 36.948853 7.4923763 50.28537 20.828892c13.336517 13.3365135 20.828888 31.42471 20.828888 50.28539l0 365.9289c0 39.27536 -31.838928 71.11429 -71.11426 71.11429l-284.4486 0c-39.27533 0 -71.11428 -31.838928 -71.11428 -71.11429z" fill-rule="evenodd"/><path stroke="#000000" stroke-width="1.0" stroke-linejoin="round" stroke-linecap="butt" d="m0 71.11428l0 0c0 -39.27533 31.83895 -71.11428 71.11428 -71.11428l284.4486 0l0 0c18.860657 0 36.948853 7.4923763 50.28537 20.828892c13.336517 13.3365135 20.828888 31.42471 20.828888 50.28539l0 365.9289c0 39.27536 -31.838928 71.11429 -71.11426 71.11429l-284.4486 0c-39.27533 0 -71.11428 -31.838928 -71.11428 -71.11429z" fill-rule="evenodd"/><path fill="#e06666" d="m29.92651 70.3731l0 0c0 -11.045914 8.954483 -20.000397 20.0004 -20.000397l79.99919 0l0 0c5.3044434 0 10.391617 2.1071777 14.142426 5.8579826c3.7508087 3.750801 5.8579865 8.837978 5.8579865 14.142414l0 93.322044c0 11.045914 -8.954483 20.000397 -20.000412 20.000397l-79.99919 0c-11.0459175 0 -20.0004 -8.954483 -20.0004 -20.000397z" fill-rule="evenodd"/><path stroke="#000000" stroke-width="1.0" stroke-linejoin="round" stroke-linecap="butt" d="m29.92651 70.3731l0 0c0 -11.045914 8.954483 -20.000397 20.0004 -20.000397l79.99919 0l0 0c5.3044434 0 10.391617 2.1071777 14.142426 5.8579826c3.7508087 3.750801 5.8579865 8.837978 5.8579865 14.142414l0 93.322044c0 11.045914 -8.954483 20.000397 -20.000412 20.000397l-79.99919 0c-11.0459175 0 -20.0004 -8.954483 -20.0004 -20.000397z" fill-rule="evenodd"/><path fill="#cfe2f3" d="m272.59317 70.3731l0 0c0 -11.045914 8.954498 -20.000397 20.000397 -20.000397l79.99921 0l0 0c5.3044434 0 10.391632 2.1071777 14.142426 5.8579826c3.7507935 3.750801 5.857971 8.837978 5.857971 14.142414l0 93.322044c0 11.045914 -8.954468 20.000397 -20.000397 20.000397l-79.99921 0c-11.045898 0 -20.000397 -8.954483 -20.000397 -20.000397z" fill-rule="evenodd"/><path stroke="#000000" stroke-width="1.0" stroke-linejoin="round" stroke-linecap="butt" d="m272.59317 70.3731l0 0c0 -11.045914 8.954498 -20.000397 20.000397 -20.000397l79.99921 0l0 0c5.3044434 0 10.391632 2.1071777 14.142426 5.8579826c3.7507935 3.750801 5.857971 8.837978 5.857971 14.142414l0 93.322044c0 11.045914 -8.954468 20.000397 -20.000397 20.000397l-79.99921 0c-11.045898 0 -20.000397 -8.954483 -20.000397 -20.000397z" fill-rule="evenodd"/><path fill="#4a86e8" d="m367.7034 264.44632l0 0c0 -3.6819763 2.9848328 -6.6667786 6.666809 -6.6667786l86.225464 0c1.7681274 0 3.4638672 0.7023926 4.714142 1.9526367c1.2502747 1.2502747 1.9526672 2.9460144 1.9526672 4.714142l0 26.666412c0 3.6819763 -2.9848328 6.666809 -6.666809 6.666809l-86.225464 0l0 0c-3.6819763 0 -6.666809 -2.9848328 -6.666809 -6.666809z" fill-rule="evenodd"/><path stroke="#000000" stroke-width="1.0" stroke-linejoin="round" stroke-linecap="butt" d="m367.7034 264.44632l0 0c0 -3.6819763 2.9848328 -6.6667786 6.666809 -6.6667786l86.225464 0c1.7681274 0 3.4638672 0.7023926 4.714142 1.9526367c1.2502747 1.2502747 1.9526672 2.9460144 1.9526672 4.714142l0 26.666412c0 3.6819763 -2.9848328 6.666809 -6.666809 6.666809l-86.225464 0l0 0c-3.6819763 0 -6.666809 -2.9848328 -6.666809 -6.666809z" fill-rule="evenodd"/><path fill="#000000" fill-opacity="0.0" d="m367.7034 256.77167l64.0 0l0 42.015747l-64.0 0z" fill-rule="evenodd"/><path fill="#ffffff" d="m384.56277 280.58228l1.6875 0.203125q-0.40625 1.484375 -1.484375 2.3125q-1.078125 0.8125 -2.765625 0.8125q-2.125 0 -3.375 -1.296875q-1.234375 -1.3125 -1.234375 -3.671875q0 -2.453125 1.25 -3.796875q1.265625 -1.34375 3.265625 -1.34375q1.9375 0 3.15625 1.328125q1.234375 1.3125 1.234375 3.703125q0 0.15625 0 0.4375l-7.21875 0q0.09375 1.59375 0.90625 2.453125q0.8125 0.84375 2.015625 0.84375q0.90625 0 1.546875 -0.46875q0.640625 -0.484375 1.015625 -1.515625zm-5.390625 -2.65625l5.40625 0q-0.109375 -1.21875 -0.625 -1.828125q-0.78125 -0.953125 -2.03125 -0.953125q-1.125 0 -1.90625 0.765625q-0.765625 0.75 -0.84375 2.015625zm12.719482 4.296875l0.234375 1.453125q-0.6875 0.140625 -1.234375 0.140625q-0.890625 0 -1.390625 -0.28125q-0.484375 -0.28125 -0.6875 -0.734375q-0.203125 -0.46875 -0.203125 -1.9375l0 -5.578125l-1.203125 0l0 -1.265625l1.203125 0l0 -2.390625l1.625 -0.984375l0 3.375l1.65625 0l0 1.265625l-1.65625 0l0 5.671875q0 0.6875 0.078125 0.890625q0.09375 0.203125 0.28125 0.328125q0.203125 0.109375 0.578125 0.109375q0.265625 0 0.71875 -0.0625zm1.6051636 1.46875l0 -13.359375l1.640625 0l0 4.796875q1.140625 -1.328125 2.890625 -1.328125q1.078125 0 1.859375 0.421875q0.796875 0.421875 1.140625 1.171875q0.34375 0.75 0.34375 2.171875l0 6.125l-1.640625 0l0 -6.125q0 -1.234375 -0.53125 -1.796875q-0.53125 -0.5625 -1.515625 -0.5625q-0.71875 0 -1.359375 0.390625q-0.640625 0.375 -0.921875 1.015625q-0.265625 0.640625 -0.265625 1.78125l0 5.296875l-1.640625 0zm9.922607 -6.59375q0 -2.359375 0.484375 -3.796875q0.484375 -1.453125 1.4375 -2.234375q0.96875 -0.78125 2.421875 -0.78125q1.078125 0 1.890625 0.4375q0.8125 0.421875 1.328125 1.25q0.53125 0.8125 0.828125 1.984375q0.3125 1.15625 0.3125 3.140625q0 2.359375 -0.484375 3.8125q-0.484375 1.4375 -1.453125 2.234375q-0.953125 0.78125 -2.421875 0.78125q-1.921875 0 -3.03125 -1.390625q-1.3125 -1.671875 -1.3125 -5.4375zm1.671875 0q0 3.296875 0.765625 4.390625q0.78125 1.078125 1.90625 1.078125q1.140625 0 1.90625 -1.09375q0.765625 -1.09375 0.765625 -4.375q0 -3.296875 -0.765625 -4.375q-0.765625 -1.078125 -1.921875 -1.078125q-1.125 0 -1.796875 0.953125q-0.859375 1.21875 -0.859375 4.5z" fill-rule="nonzero"/><path fill="#cfe2f3" d="m182.96063 454.33597l0 0c0 -16.098907 13.6006775 -29.149628 30.377945 -29.149628l0 0c8.056732 0 15.783493 3.0711365 21.480469 8.53772c5.6969604 5.466614 8.897491 12.880951 8.897491 20.611908l0 0c0 16.098877 -13.6006775 29.149597 -30.37796 29.149597l0 0c-16.777267 0 -30.377945 -13.05072 -30.377945 -29.149597z" fill-rule="evenodd"/><path stroke="#000000" stroke-width="1.0" stroke-linejoin="round" stroke-linecap="butt" d="m182.96063 454.33597l0 0c0 -16.098907 13.6006775 -29.149628 30.377945 -29.149628l0 0c8.056732 0 15.783493 3.0711365 21.480469 8.53772c5.6969604 5.466614 8.897491 12.880951 8.897491 20.611908l0 0c0 16.098877 -13.6006775 29.149597 -30.37796 29.149597l0 0c-16.777267 0 -30.377945 -13.05072 -30.377945 -29.149597z" fill-rule="evenodd"/></g></svg>